<svg xmlns="http://www.w3.org/2000/svg" width="15" height="61" viewBox="0 0 15 61">
  <g fill="#ED1C24" fill-rule="evenodd">
    <path d="M3.10000014.6C2.74800014.512 2.39600014.512 2.30800014.512.900000143.512.196000143 1.216.196000143 2.536L.196000143 2.888C.372000143 4.824.372000143 4.824.372000143 5.352L.372000143 5.968.284000143 7.376.372000143 9.048.460000143 11.424C.548000143 12.48.548000143 12.744.636000143 14.328L.988000143 22.424C1.69200014 30.344 2.04400014 35.8 2.04400014 37.472L1.95600014 40.904C1.95600014 42.048 2.74800014 42.488 4.50800014 42.488L6.53200014 42.4C6.97200014 42.4 7.76400014 42.488 9.08400014 42.576L9.70000014 42.576C11.4600001 42.576 11.7240001 41.872 11.8120001 37.824 11.9000001 35.36 11.9000001 34.656 12.4280001 30.08 12.8680001 26.56 12.9560001 25.152 13.1320001 20.928 13.4840001 12.48 13.6600001 10.192 14.3640001 3.328 14.4520001 2.976 14.4520001 2.624 14.4520001 2.36 14.4520001 1.128 13.4840001.512 11.6360001.512L9.96400014.512C7.32400014.688 7.32400014.688 6.53200014.688L3.10000014.6zM4.42000014 45.832C3.71600014 45.832 3.71600014 45.832 2.04400014 45.568.900000143 45.568.108000143 46.448.108000143 47.68.108000143 48.032.108000143 48.472.196000143 49 .284000143 49.528.284000143 50.32.284000143 51.464.284000143 54.016.284000143 55.776.108000143 57.272L.108000143 58.152C.108000143 59.56.812000143 60.088 2.74800014 60.088L3.80400014 60.088C5.56400014 60 6.97200014 60 7.58800014 60 8.29200014 60 8.99600014 60 9.70000014 60.088 10.2280001 60.176 10.6680001 60.176 10.9320001 60.176 12.4280001 60.176 13.3080001 59.384 13.3080001 57.976 13.3080001 57.624 13.3080001 57.008 13.2200001 56.304 13.1320001 55.864 13.1320001 53.312 13.1320001 51.024L13.1320001 48.648C13.2200001 48.208 13.2200001 47.68 13.2200001 47.68 13.2200001 46.36 12.6040001 45.744 11.3720001 45.744 10.9320001 45.744 10.4040001 45.744 9.61200014 45.832L4.42000014 45.832z"/>
  </g>
</svg>
