<svg xmlns="http://www.w3.org/2000/svg" width="37" height="61" viewBox="0 0 37 61">
  <path fill="#ED1C24" fill-rule="evenodd" d="M33.7519999,60.352 C35.3359999,60.352 36.2159999,59.56 36.2159999,58.064 C36.2159999,57.448 36.1279999,56.744 35.9519999,55.952 C34.9839999,52.168 34.4559999,49.704 33.9279999,46.096 C32.1679999,32.632 31.2879999,27.352 30.3199999,22.512 C29.9679999,21.192 29.7039999,19.784 29.4399999,18.464 C29.0879999,17.056 28.8239999,15.384 28.4719999,13.624 C28.2959999,12.04 27.9439999,10.544 27.6799999,9.136 C27.2399999,7.112 27.2399999,6.76 26.9759999,4.384 C26.7119999,1.48 26.1839999,0.776 24.5119999,0.776 C23.9839999,0.776 23.1919999,0.776 22.3119999,0.864 C21.3439999,0.952 20.1119999,0.952 18.3519999,0.952 C16.7679999,0.952 15.5359999,0.952 14.6559999,0.864 C14.1279999,0.776 13.6879999,0.776 13.5119999,0.776 C11.9279999,0.776 11.3999999,1.216 11.1359999,2.8 C11.0479999,3.328 10.6079999,6.056 9.63999994,10.896 C9.28799994,13.096 8.84799994,15.12 8.31999994,17.144 C7.79199994,19.256 7.35199994,21.456 6.91199994,23.832 C5.94399994,28.848 5.23999994,32.72 4.71199994,35.184 C4.18399994,38 3.83199994,40.2 3.65599994,42.048 C3.03999994,46.184 2.86399994,47.416 2.33599994,49.88 C0.66399994,57.272 0.66399994,57.272 0.66399994,58.328 C0.66399994,59.736 1.19199994,60.352 2.59999994,60.352 C2.86399994,60.352 3.12799994,60.352 3.47999994,60.264 C5.15199994,60.088 6.38399994,60 6.38399994,60 L13.3359999,60.352 C13.5119999,60.352 14.1279999,59.736 14.4799999,59.296 C14.9199999,58.592 15.0959999,57.8 15.0959999,56.392 C15.0079999,51.904 15.9759999,50.32 18.8799999,50.32 C21.1679999,50.32 21.9599999,51.552 22.0479999,55.248 C22.1359999,59.56 22.6639999,60.528 24.6879999,60.528 L29.2639999,60.176 L33.7519999,60.352 Z M18.7039999,22.424 C19.0559999,22.424 19.3199999,23.304 19.4959999,24.536 C19.4959999,24.888 20.1119999,29.552 20.4639999,32.28 C20.9039999,34.832 20.9039999,35.008 20.9039999,35.536 C20.9039999,36.68 20.1119999,37.296 18.5279999,37.296 C17.1199999,37.296 16.2399999,36.68 16.2399999,35.8 C16.2399999,35.536 16.3279999,35.096 16.4159999,34.656 C16.5919999,33.248 17.2959999,28.584 17.9119999,24.624 C17.9999999,23.392 18.3519999,22.424 18.7039999,22.424 Z"/>
</svg>
