<svg xmlns="http://www.w3.org/2000/svg" width="41" height="61" viewBox="0 0 41 61">
  <path fill="#ED1C24" fill-rule="evenodd" d="M817.868,624.016 C818.836,625.512 819.012,625.776 819.804,625.776 L822.268,625.688 L828.692,625.864 C830.188,625.864 831.332,625.072 831.332,624.016 C831.332,623.664 831.244,623.4 831.068,623.136 L830.188,621.816 L829.132,619.704 C828.78,619.088 827.372,616.712 826.492,615.392 C826.316,615.128 826.228,614.864 826.228,614.688 C826.228,614.512 826.316,614.336 826.58,614.072 C828.076,612.312 828.428,611.52 829.66,608.704 C830.804,606.064 832.212,599.464 832.212,596.912 C832.212,595.768 831.508,594.888 830.364,594.624 C829.836,594.536 828.604,594.536 823.588,594.536 C822.092,594.536 821.036,595.328 821.036,596.472 C821.036,596.648 821.124,597.088 821.212,597.704 L821.212,598.232 C821.212,599.904 820.684,601.488 819.804,602.72 C818.748,600.432 816.284,595.856 815.492,594.888 C817.076,593.48 818.22,592.248 820.244,589.608 C823.676,585.208 824.468,583.096 824.468,579.048 C824.468,575.528 823.588,572.976 821.74,570.952 C819.188,568.224 815.404,566.64 811.532,566.64 C803.7,566.64 798.156,572.448 798.156,580.72 C798.156,583.36 799.124,586.264 800.708,588.464 C801.852,590.048 801.852,590.048 801.852,590.312 C801.852,590.752 801.5,591.104 800.268,592.072 C798.332,593.656 795.868,596.384 794.548,598.584 C792.964,601.048 792.348,603.952 792.348,608.264 C792.348,614.072 793.668,617.944 796.748,621.552 C799.476,624.896 803.26,626.48 808.1,626.48 C812.06,626.48 814.172,625.864 817.604,623.576 L817.868,624.016 Z M811.004,584.504 C809.86,582.832 809.156,580.896 809.156,579.312 C809.156,577.728 810.388,576.32 811.796,576.32 C813.204,576.32 814.26,577.464 814.26,579.048 C814.26,581.072 813.292,582.744 811.004,584.504 Z M811.444,612.752 C810.828,613.544 810.036,613.984 809.156,613.984 C807.044,613.984 804.668,610.728 804.668,607.912 C804.668,606.416 805.46,604.568 806.692,603.248 L811.444,612.752 Z" transform="translate(-792 -566)"/>
</svg>
