<svg xmlns="http://www.w3.org/2000/svg" width="14" height="23" viewBox="0 0 14 23">
  <path fill="#ED1C24" fill-rule="evenodd" d="M106.064,0.776 C105.448,0.688 105.096,0.6 104.92,0.6 C103.6,0.6 102.632,1.568 102.632,2.888 L102.72,4.648 C102.808,5.176 102.808,5.88 102.808,6.76 C102.808,8.256 102.72,9.664 102.632,11.072 C102.544,11.688 102.544,12.128 102.544,12.48 C102.544,13.8 102.984,14.592 103.864,14.768 C105.36,15.12 105.712,15.472 105.712,16.528 C105.712,17.584 105.008,19.256 104.128,20.224 C103.424,21.104 103.336,21.28 103.336,21.632 C103.336,22.248 103.952,22.688 104.92,22.688 L108.88,22.6 C109.672,22.512 109.672,22.512 111.52,20.048 C113.896,16.968 115.216,13.008 115.216,9.136 C115.216,8.344 115.216,7.464 115.128,6.408 L115.04,3.504 C115.04,1.48 114.16,0.776 111.872,0.864 L109.144,0.864 L106.064,0.776 Z" transform="translate(-102)"/>
</svg>
