<svg xmlns="http://www.w3.org/2000/svg" width="34" height="61" viewBox="0 0 34 61">
  <path fill="#ED1C24" fill-rule="evenodd" d="M8.35599999,0.952 C5.18799999,0.776 5.18799999,0.776 4.39599999,0.776 C1.75599999,0.776 0.699999988,1.832 0.699999988,4.472 L0.699999988,5.792 C0.787999988,7.816 0.875999988,9.136 0.875999988,9.224 L0.611999988,18.728 L0.963999988,28.32 L0.699999988,41.96 L0.875999988,51.728 C0.875999988,51.904 0.875999988,52.432 0.787999988,53.136 C0.699999988,54.72 0.699999988,56.128 0.699999988,57.272 C0.699999988,59.472 1.57999999,60.264 4.21999999,60.264 C5.09999999,60.264 5.09999999,60.264 7.73999999,60.088 L12.052,60.352 L17.948,60.176 C22.876,60 23.844,59.824 26.22,58.592 C30.972,56.128 33.26,50.936 33.26,42.488 C33.26,35.008 31.94,31.4 27.628,27.44 C31.06,24.712 32.292,21.456 32.292,15.208 C32.292,10.72 31.324,7.288 29.476,5.088 C27.54,2.8 23.228,0.776 20.412,0.776 L8.35599999,0.952 Z M13.812,16.616 C13.812,12.744 13.988,12.392 15.66,12.392 C17.684,12.392 19.268,14.592 19.268,17.584 C19.268,20.576 17.772,22.512 15.572,22.512 C14.076,22.512 13.724,22.072 13.724,19.96 L13.724,19.432 L13.812,17.584 L13.812,16.616 Z M13.724,38.176 C13.724,35.888 14.428,34.832 16.1,34.832 C18.212,34.832 19.62,36.768 19.62,39.76 C19.62,42.928 19.532,44.512 19.268,45.568 C18.916,46.8 17.684,47.768 16.276,47.768 C15.044,47.768 14.252,47.24 13.988,46.272 C13.812,45.48 13.812,45.48 13.812,40.904 L13.724,38.176 Z"/>
</svg>
