<svg xmlns="http://www.w3.org/2000/svg" width="39" height="34" viewBox="0 0 39 34">
  <g fill="#4A4A4A" fill-rule="evenodd">
    <path d="M17.1428571,34 C7.61904762,34 0,26.4444444 0,17 C0,12.4666667 1.71428571,8.12222222 4.95238095,4.91111111 C8.19047619,1.7 12.5714286,0 17.1428571,0 C26.6666667,0 34.2857143,7.55555556 34.2857143,17 C34.2857143,18.1333333 33.5238095,18.8888889 32.3809524,18.8888889 C31.2380952,18.8888889 30.4761905,18.1333333 30.4761905,17 C30.4761905,9.63333333 24.5714286,3.77777778 17.1428571,3.77777778 C13.5238095,3.77777778 10.2857143,5.1 7.61904762,7.55555556 C5.14285714,10.0111111 3.80952381,13.4111111 3.80952381,17 C3.80952381,24.3666667 9.71428571,30.2222222 17.1428571,30.2222222 C20.7619048,30.2222222 24,28.9 26.6666667,26.4444444 C27.4285714,25.6888889 28.5714286,25.6888889 29.3333333,26.4444444 C30.0952381,27.2 30.0952381,28.3333333 29.3333333,29.0888889 C26.0952381,32.3 21.7142857,34 17.1428571,34 Z"/>
    <path d="M32.3809524,18.8888889 C32,18.8888889 31.6190476,18.7 31.2380952,18.5111111 L24.7619048,13.7888889 C24,13.2222222 23.8095238,11.9 24.3809524,11.1444444 C24.952381,10.3888889 26.0952381,10.2 27.047619,10.7666667 L33.5238095,15.4888889 C34.2857143,16.0555556 34.4761905,17.3777778 33.9047619,18.1333333 C33.5238095,18.7 32.952381,18.8888889 32.3809524,18.8888889 Z"/>
    <path d="M32.3809524,18.8888889 C32,18.8888889 31.6190476,18.7 31.2380952,18.5111111 C30.4761905,17.9444444 30.2857143,16.6222222 30.8571429,15.8666667 L35.6190476,9.44444444 C36.1904762,8.68888889 37.5238095,8.5 38.2857143,9.06666667 C39.047619,9.63333333 39.2380952,10.9555556 38.6666667,11.7111111 L33.9047619,18.1333333 C33.5238095,18.7 32.952381,18.8888889 32.3809524,18.8888889 Z"/>
  </g>
</svg>
