<svg xmlns="http://www.w3.org/2000/svg" width="40" height="40" viewBox="0 0 40 40">
  <g fill="#4A4A4A" fill-rule="evenodd">
    <path d="M20,40 C9,40 0,31 0,20 C0,9 9,0 20,0 C31,0 40,9 40,20 C40,31 31,40 20,40 Z M20,3.33333333 C10.8333333,3.33333333 3.33333333,10.8333333 3.33333333,20 C3.33333333,29.1666667 10.8333333,36.6666667 20,36.6666667 C29.1666667,36.6666667 36.6666667,29.1666667 36.6666667,20 C36.6666667,10.8333333 29.1666667,3.33333333 20,3.33333333 Z"/>
    <path d="M20,28.3333333 C19.5,28.3333333 19.1666667,28.1666667 18.8333333,27.8333333 C18.1666667,27.1666667 18.1666667,26.1666667 18.8333333,25.5 L23.8333333,20.5 C24.5,19.8333333 25.5,19.8333333 26.1666667,20.5 C26.8333333,21.1666667 26.8333333,22.1666667 26.1666667,22.8333333 L21.1666667,27.8333333 C20.8333333,28.1666667 20.5,28.3333333 20,28.3333333 Z"/>
    <path d="M20,28.3333333 C19.5,28.3333333 19.1666667,28.1666667 18.8333333,27.8333333 L13.8333333,22.8333333 C13.1666667,22.1666667 13.1666667,21.1666667 13.8333333,20.5 C14.5,19.8333333 15.5,19.8333333 16.1666667,20.5 L21.1666667,25.5 C21.8333333,26.1666667 21.8333333,27.1666667 21.1666667,27.8333333 C20.8333333,28.1666667 20.5,28.3333333 20,28.3333333 Z"/>
    <path d="M20,28.3333333 C19,28.3333333 18.3333333,27.6666667 18.3333333,26.6666667 L18.3333333,13.3333333 C18.3333333,12.3333333 19,11.6666667 20,11.6666667 C21,11.6666667 21.6666667,12.3333333 21.6666667,13.3333333 L21.6666667,26.6666667 C21.6666667,27.6666667 21,28.3333333 20,28.3333333 Z"/>
  </g>
</svg>
