<svg xmlns="http://www.w3.org/2000/svg" width="26" height="61" viewBox="0 0 26 61">
  <path fill="#ED1C24" fill-rule="evenodd" d="M97.2919999,67.136 C97.2919999,66.696 97.2919999,66.168 97.3799999,65.552 C97.4679999,64.672 97.4679999,63.88 97.4679999,63.44 C97.4679999,61.328 96.4119999,60.448 93.7719999,60.448 C90.9559999,60.536 89.6359999,60.008 88.2279999,58.16 C86.6439999,56.136 86.0279999,52.528 86.0279999,45.4 C86.0279999,40.208 86.3799999,34.312 86.8199999,32.64 C87.5239999,30.176 89.5479999,28.328 91.7479999,28.328 C91.8359999,28.328 92.8919999,28.416 94.4759999,28.592 C94.7399999,28.68 94.9159999,28.68 95.1799999,28.68 C96.4999999,28.68 97.3799999,27.712 97.3799999,26.304 C97.3799999,21.728 97.2919999,17.064 97.2039999,16.8 C96.4119999,15.304 94.7399999,14.6 91.7479999,14.6 C87.7879999,14.6 84.8839999,15.128 82.8599999,16.184 C79.2519999,18.032 75.9079999,22.344 74.3239999,27.008 C73.3559999,30 72.7399999,38.096 72.7399999,46.984 C72.7399999,53.672 73.4439999,60.272 74.4999999,63.616 C75.2919999,66.256 78.2839999,70.392 80.4839999,71.888 C82.8599999,73.56 88.5799999,74.968 93.1559999,74.968 C95.8839999,74.968 97.3799999,73.648 97.3799999,71.36 C97.3799999,70.48 97.3799999,69.336 97.2919999,67.928 L97.2919999,67.136 Z" transform="translate(-72 -14)"/>
</svg>
