<svg xmlns="http://www.w3.org/2000/svg" width="33" height="61" viewBox="0 0 33 61">
  <path fill="#ED1C24" fill-rule="evenodd" d="M12.9560001,1.128 C11.9000001,1.128 10.9320001,1.128 9.17200013,1.04 C7.41200013,0.952 6.00400013,0.864 5.03600013,0.864 C2.22000013,0.864 1.16400013,1.832 1.16400013,4.296 C1.16400013,5.088 1.25200013,6.76 1.34000013,8.608 C1.42800013,9.928 1.42800013,11.16 1.42800013,12.392 C1.42800013,13.536 1.34000013,15.384 1.25200013,17.76 C1.16400013,20.224 1.16400013,21.896 1.16400013,23.04 L1.25200013,30.608 L1.16400013,39.32 C1.16400013,40.376 1.25200013,42.752 1.34000013,46.448 C1.42800013,47.944 1.42800013,49.176 1.42800013,50.144 C1.42800013,51.464 1.42800013,51.64 1.07600013,55.6 C0.988000131,56.04 0.988000131,56.48 0.988000131,56.832 C0.988000131,58.68 2.66000013,60.264 4.59600013,60.264 L5.12400013,60.264 C8.38000013,60.088 8.38000013,60.088 9.26000013,60.088 L11.3720001,60.088 C13.1320001,60.176 14.7160001,60.176 15.8600001,60.176 C20.0840001,60.176 22.9000001,59.472 25.7160001,57.624 C28.5320001,55.864 29.5880001,54.368 31.0840001,50.496 C32.8440001,46.008 32.8440001,45.656 33.2840001,39.056 L33.5480001,36.416 C33.8120001,34.04 33.8120001,33.512 33.8120001,31.928 C33.8120001,22.952 32.9320001,13.8 31.9640001,11.688 C29.6760001,6.936 29.5880001,6.76 29.3240001,6.408 C27.6520001,3.328 23.3400001,1.04 19.3800001,1.04 L12.9560001,1.128 Z M14.1000001,17.232 C14.1000001,14.504 14.7160001,13.536 16.2120001,13.536 C18.3240001,13.536 19.4680001,16.264 19.8200001,21.896 L19.9960001,25.416 C20.0840001,27 20.1720001,28.056 20.1720001,28.408 L19.9960001,31.576 L20.0840001,34.48 C19.9080001,38.704 19.7320001,40.992 19.7320001,41.256 C19.2920001,44.864 18.0600001,46.712 16.1240001,46.712 C14.7160001,46.712 14.1000001,45.92 14.1000001,44.072 L14.1000001,38.264 C14.1880001,34.04 14.1880001,29.288 14.1880001,24.272 C14.1880001,22.952 14.1880001,22.776 14.1000001,19.52 L14.1000001,17.232 Z" transform="translate(-1)"/>
</svg>
