<svg xmlns="http://www.w3.org/2000/svg" width="28" height="61" viewBox="0 0 28 61">
  <path fill="#ED1C24" fill-rule="evenodd" d="M54.1639999,0.864 C50.4679999,0.688 50.4679999,0.688 49.6759999,0.688 C48.5319999,0.688 47.2999999,0.688 45.2759999,0.864 C42.0199999,1.04 41.2279999,1.04 40.5239999,1.04 C39.8199999,1.04 39.8199999,1.04 37.3559999,0.864 C35.5959999,0.864 34.4519999,2.008 34.4519999,3.68 L34.6279999,6.936 L34.5399999,10.192 L34.7159999,15.12 L34.5399999,22.864 C34.5399999,22.952 34.5399999,23.656 34.6279999,24.712 L34.6279999,27.792 L34.4519999,35.8 L34.7159999,46.976 C34.7159999,49.44 34.7159999,51.2 34.6279999,52.344 C34.5399999,54.456 34.4519999,56.128 34.4519999,57.184 C34.4519999,59.208 35.5079999,60.264 37.6199999,60.264 C38.5879999,60.264 39.7319999,60.264 41.0519999,60.176 C42.5479999,60.088 43.6919999,60.088 44.6599999,60.088 C45.6279999,60.088 46.5959999,60.088 47.3879999,60.176 C48.8839999,60.264 49.8519999,60.352 50.1159999,60.352 C50.5559999,60.352 51.2599999,60.264 52.2279999,60.176 C53.1959999,60.088 53.8999999,60.088 54.4279999,60.088 C54.9559999,60.088 55.9239999,60.176 57.1559999,60.264 C57.6839999,60.352 58.1239999,60.352 58.5639999,60.352 C60.3239999,60.352 61.5559999,59.384 61.8199999,57.888 C61.9079999,57.36 61.9959999,54.016 61.9959999,50.76 C61.9959999,48.648 61.6439999,47.592 60.6759999,47.064 C60.0599999,46.712 59.8839999,46.712 56.7159999,46.712 L55.4839999,46.712 C53.5479999,46.712 52.5799999,46.712 50.6439999,46.8 L50.4679999,46.8 C49.3239999,46.8 48.3559999,46.272 48.0039999,45.392 C47.9159999,45.128 47.7399999,41.08 47.7399999,37.824 C47.7399999,36.504 49.0599999,35.448 50.8199999,35.448 C51.3479999,35.448 52.0519999,35.448 52.9319999,35.536 C54.1639999,35.624 55.3959999,35.712 56.7159999,35.712 C59.2679999,35.712 60.4119999,34.832 60.5879999,32.632 C60.6759999,31.488 60.4999999,24.8 60.3239999,24.36 C59.9719999,23.128 59.0919999,22.6 57.5079999,22.6 L56.0999999,22.6 L53.1959999,22.688 L49.6759999,22.864 C48.2679999,22.864 47.4759999,22.072 47.4759999,20.576 L47.5639999,17.76 L47.4759999,15.736 C47.4759999,14.328 48.1799999,13.536 49.3239999,13.536 L51.5239999,13.712 C54.1639999,13.448 54.1639999,13.448 54.6919999,13.448 C55.2199999,13.448 55.7479999,13.448 56.4519999,13.536 C57.0679999,13.624 57.5959999,13.624 57.9479999,13.624 C59.2679999,13.624 60.3239999,12.744 60.5879999,11.6 C60.7639999,10.896 60.7639999,2.976 60.5879999,2.536 C60.0599999,1.48 58.9159999,0.776 57.5079999,0.776 L54.1639999,0.864 Z" transform="translate(-34)"/>
</svg>
