<svg xmlns="http://www.w3.org/2000/svg" width="29" height="75" viewBox="0 0 29 75">
  <g fill="#ED1C24" fill-rule="evenodd">
    <path d="M19.5639999.872L13.8439999.696C12.6119999.696 11.9079999 1.752 10.9399999 5.184 10.7639999 6.328 10.4119999 7.296 9.79599992 8.176 9.61999992 8.528 9.53199992 8.792 9.53199992 8.88 9.53199992 9.672 10.4999999 10.288 11.8199999 10.288 11.9959999 10.288 12.6119999 10.288 13.4039999 10.2 16.8359999 10.2 16.8359999 10.2 17.7159999 9.232 18.2439999 8.616 17.9799999 8.968 18.5959999 8.352 19.1239999 7.824 19.7399999 7.208 20.3559999 6.68 25.1959999 2.368 25.1959999 2.368 25.1959999 1.576 25.1959999 1.136 24.7559999.784 24.1399999.696L19.5639999.872zM20.2679999 14.864C16.5719999 14.688 16.5719999 14.688 15.7799999 14.688 14.6359999 14.688 13.4039999 14.688 11.3799999 14.864 8.12399992 15.04 7.33199992 15.04 6.62799992 15.04 5.92399992 15.04 5.92399992 15.04 3.45999992 14.864 1.69999992 14.864.555999917 16.008.555999917 17.68L.731999917 20.936.643999917 24.192.819999917 29.12.643999917 36.864C.643999917 36.952.643999917 37.656.731999917 38.712L.731999917 41.792.555999917 49.8.819999917 60.976C.819999917 63.44.819999917 65.2.731999917 66.344.643999917 68.456.555999917 70.128.555999917 71.184.555999917 73.208 1.61199992 74.264 3.72399992 74.264 4.69199992 74.264 5.83599992 74.264 7.15599992 74.176 8.65199992 74.088 9.79599992 74.088 10.7639999 74.088 11.7319999 74.088 12.6999999 74.088 13.4919999 74.176 14.9879999 74.264 15.9559999 74.352 16.2199999 74.352 16.6599999 74.352 17.3639999 74.264 18.3319999 74.176 19.2999999 74.088 20.0039999 74.088 20.5319999 74.088 21.0599999 74.088 22.0279999 74.176 23.2599999 74.264 23.7879999 74.352 24.2279999 74.352 24.6679999 74.352 26.4279999 74.352 27.6599999 73.384 27.9239999 71.888 28.0119999 71.36 28.0999999 68.016 28.0999999 64.76 28.0999999 62.648 27.7479999 61.592 26.7799999 61.064 26.1639999 60.712 25.9879999 60.712 22.8199999 60.712L21.5879999 60.712C19.6519999 60.712 18.6839999 60.712 16.7479999 60.8L16.5719999 60.8C15.4279999 60.8 14.4599999 60.272 14.1079999 59.392 14.0199999 59.128 13.8439999 55.08 13.8439999 51.824 13.8439999 50.504 15.1639999 49.448 16.9239999 49.448 17.4519999 49.448 18.1559999 49.448 19.0359999 49.536 20.2679999 49.624 21.4999999 49.712 22.8199999 49.712 25.3719999 49.712 26.5159999 48.832 26.6919999 46.632 26.7799999 45.488 26.6039999 38.8 26.4279999 38.36 26.0759999 37.128 25.1959999 36.6 23.6119999 36.6L22.2039999 36.6 19.2999999 36.688 15.7799999 36.864C14.3719999 36.864 13.5799999 36.072 13.5799999 34.576L13.6679999 31.76 13.5799999 29.736C13.5799999 28.328 14.2839999 27.536 15.4279999 27.536L17.6279999 27.712C20.2679999 27.448 20.2679999 27.448 20.7959999 27.448 21.3239999 27.448 21.8519999 27.448 22.5559999 27.536 23.1719999 27.624 23.6999999 27.624 24.0519999 27.624 25.3719999 27.624 26.4279999 26.744 26.6919999 25.6 26.8679999 24.896 26.8679999 16.976 26.6919999 16.536 26.1639999 15.48 25.0199999 14.776 23.6119999 14.776L20.2679999 14.864z"/>
  </g>
</svg>
