<svg xmlns="http://www.w3.org/2000/svg" width="27" height="61" viewBox="0 0 27 61">
  <path fill="#ED1C24" fill-rule="evenodd" d="M761.448,566.864 C758.72,566.864 757.84,567.744 757.84,570.472 C757.84,571.176 757.84,571.176 758.016,574.52 L757.664,584.904 C757.664,585.872 757.664,587.28 757.752,588.952 C757.928,592.296 758.016,594.848 758.016,596.168 C758.016,596.96 758.016,598.72 757.928,601.096 C757.84,604 757.752,608.4 757.752,610.248 L757.752,612.448 C757.928,616.056 758.016,618.608 758.016,618.784 C758.016,619.312 757.928,620.456 757.664,621.776 C757.576,622.656 757.488,623.448 757.488,624.152 C757.488,625.56 758.192,626.352 759.336,626.352 L762.064,626.088 L764.528,626.264 L766.816,626.088 L769.544,626.44 C770.688,626.616 771.304,625.56 771.304,623.448 C771.304,623.008 771.304,622.48 771.216,621.952 C771.04,619.488 770.952,617.64 770.952,617.288 C770.952,617.112 770.952,616.672 771.04,616.144 L771.128,614.824 C771.04,610.6 770.952,607.52 770.952,605.496 L770.864,604.352 C770.864,602.768 772.096,602.064 775,602.064 L777.2,602.064 C778.256,602.152 779.136,602.152 779.752,602.152 C781.424,602.152 782.392,601.8 782.744,601.008 C783.096,600.304 783.272,597.4 783.272,591.064 C783.272,589.568 782.392,588.688 780.896,588.688 C780.368,588.688 779.84,588.688 779.136,588.776 C777.728,588.952 775.792,589.04 773.768,589.04 C771.304,589.04 770.776,588.336 770.776,585.08 C770.776,580.24 771.128,579.624 773.592,579.624 C774.736,579.624 776.232,579.624 777.992,579.712 L779.576,579.712 C782.304,579.712 783.448,579.008 783.536,577.248 L783.448,574.344 L783.624,570.032 C783.624,568.008 782.568,566.688 780.808,566.688 C780.368,566.688 779.576,566.688 778.696,566.776 L777.288,566.864 L761.448,566.864 Z" transform="translate(-757 -566)"/>
</svg>
