<svg xmlns="http://www.w3.org/2000/svg" width="36" height="61" viewBox="0 0 36 61">
  <path fill="#ED1C24" fill-rule="evenodd" d="M266.816,49.36 C267.872,49.36 268.136,49.712 268.224,51.472 C268.312,52 268.4,57.544 268.4,59.04 C268.4,60.448 267.52,61.416 266.288,61.416 C264.176,61.416 262.592,59.744 261.712,56.4 C260.832,53.144 260.304,49.712 260.304,47.512 C260.304,46.632 260.304,46.544 260.48,44.344 C260.568,42.496 260.656,40.736 260.744,39.152 C260.832,36.952 260.92,36.424 261.536,34.752 C263.384,29.824 266.288,27.888 271.48,27.888 C273.24,27.888 274.472,28.064 275.44,28.504 C276.32,28.856 277.024,29.12 277.2,29.12 C277.552,29.12 278.608,28.592 279.136,28.24 C279.752,27.8 279.928,27.536 279.928,26.832 L279.928,25.952 C279.84,25.336 279.84,24.632 279.84,23.928 L279.84,22.784 C279.928,20.936 279.928,19.616 279.928,18.912 C279.928,17.768 279.664,16.8 279.224,16.36 C278.256,15.304 274.912,14.512 271.48,14.512 C265.672,14.512 259.864,16.008 256.872,18.384 C255.464,19.528 252.296,23.224 250.976,25.424 C248.512,29.648 246.928,37.568 246.928,46.368 C246.928,55.784 248.864,63.176 252.648,68.104 C256.256,72.856 261.448,74.704 270.864,74.704 C277.816,74.704 281.072,73.56 281.072,71.184 L280.896,64.496 C280.896,64.232 280.896,63.44 280.984,62.208 L280.984,48.832 L280.896,45.4 C280.984,40.648 280.984,40.648 280.984,40.208 C280.984,37.832 280.104,36.424 278.608,36.248 L268.488,36.424 L266.376,36.336 C265.672,36.336 265.056,36.864 264.792,37.656 C264.616,38.448 264.528,39.152 264.616,42.76 L264.616,45.136 C264.616,49.272 264.616,49.36 265.76,49.36 L266.816,49.36 Z" transform="translate(-246 -14)"/>
</svg>
