<svg xmlns="http://www.w3.org/2000/svg" width="14" height="61" viewBox="0 0 14 61">
  <path fill="#ED1C24" fill-rule="evenodd" d="M189.704,15.216 C189.704,15.216 189.088,15.128 188.208,15.04 C187.768,14.952 187.416,14.952 187.064,14.952 C185.216,14.952 184.336,15.832 184.336,17.592 L184.688,31.584 L184.512,37.48 C184.512,37.568 184.512,38.536 184.6,39.944 C184.688,41.088 184.688,42.144 184.688,43.728 L184.6,49.448 C184.512,51.12 184.424,52.528 184.424,52.616 L184.6,67.488 C184.6,67.576 184.512,68.544 184.424,69.864 C184.336,70.568 184.336,71.184 184.336,71.712 C184.336,73.296 185.04,74.352 186.096,74.44 C191.552,74.176 191.552,74.176 196.216,74.176 C197.008,74.176 197.976,73.032 197.976,72.152 C197.976,71.712 197.888,71.008 197.8,70.128 C197.712,69.6 197.712,68.896 197.712,67.84 L197.8,57.544 L197.624,51.208 L197.8,45.84 L197.624,39.152 L197.712,35.544 L197.624,24.984 C197.624,23.928 197.712,20.32 197.888,18.12 L197.888,17.152 C197.888,16.096 197.096,14.952 196.392,14.952 L189.704,15.216 Z" transform="translate(-184 -14)"/>
</svg>
