<svg xmlns="http://www.w3.org/2000/svg" width="19" height="60" viewBox="0 0 19 60">
  <path fill="#ED1C24" fill-rule="evenodd" d="M277.096,135.304 C276.216,135.304 275.336,135.304 274.544,135.216 C274.016,135.128 273.664,135.128 273.488,135.128 C272.08,135.128 271.288,135.744 271.288,136.976 C271.288,137.68 271.376,138.56 271.464,139.792 L271.64,144.808 L271.64,159.328 L271.552,165.488 L271.552,174.992 C271.64,176.136 271.64,177.016 271.64,177.456 C271.64,179.304 270.848,180.712 269.88,180.712 L267.856,180.624 C267.24,180.624 266.448,181.504 266.448,182.208 L266.536,184.936 L266.448,186.872 C266.36,187.4 266.36,187.752 266.36,188.104 C266.36,191.8 266.36,192.328 266.712,192.856 C267.152,193.824 267.856,194.352 268.648,194.352 L272.608,194.176 L276.304,194.264 C281.056,194.264 284.4,190.568 284.4,185.2 L284.4,180.624 L284.488,176.84 C284.664,173.144 284.752,170.416 284.752,169.624 L284.576,156.864 C284.576,156.688 284.664,154.84 284.752,152.464 C284.84,151.496 284.84,150.704 284.84,150 L284.84,148.152 C284.664,144.984 284.576,142.696 284.576,142.52 C284.576,142.168 284.664,140.936 284.752,139.264 C284.84,138.736 284.84,138.208 284.84,137.768 C284.84,135.92 284.048,135.216 282.112,135.216 C281.32,135.216 280,135.216 278.24,135.304 L277.096,135.304 Z" transform="translate(-266 -135)"/>
</svg>
