<svg xmlns="http://www.w3.org/2000/svg" width="25" height="61" viewBox="0 0 25 61">
  <path fill="#ED1C24" fill-rule="evenodd" d="M143.348,15.216 C139.564,14.952 139.564,14.952 138.948,14.952 C137.628,14.952 137.012,15.48 137.012,16.624 C137.012,17.152 137.1,18.208 137.188,19.616 C137.276,20.232 137.276,21.024 137.276,21.992 L137.1,29.032 L137.188,36.072 C137.188,36.424 137.188,37.128 137.1,38.096 C137.012,40.032 137.012,44.96 137.012,53.144 C137.012,56.928 137.012,57.28 137.1,58.512 C137.364,63.44 137.364,63.44 137.364,64.144 C137.364,64.936 137.364,65.64 137.276,66.608 C137.188,68.192 137.1,69.512 137.1,70.392 C137.1,72.944 138.244,74.44 140.18,74.44 L141.236,74.44 C145.284,74.176 145.636,74.176 146.428,74.176 C146.956,74.176 147.572,74.176 148.276,74.264 C149.42,74.352 150.212,74.352 150.476,74.352 C150.916,74.352 151.444,74.352 152.236,74.264 C153.116,74.176 153.82,74.176 154.26,74.176 L156.636,74.264 C157.164,74.352 157.604,74.352 158.044,74.352 C159.98,74.352 161.036,73.208 161.036,71.272 L160.948,67.928 L161.036,64.584 C161.036,62.472 160.156,61.152 158.748,61.152 C158.22,61.152 157.164,61.24 155.932,61.504 C155.228,61.592 154.612,61.68 153.908,61.68 C151.972,61.68 150.916,61.152 150.476,59.832 C150.212,59.04 150.212,57.984 150.212,49.976 L150.3,32.816 C150.3,32.112 150.3,30.968 150.212,29.12 C150.124,26.744 150.036,24.896 150.036,24.104 C150.036,22.52 150.124,20.848 150.212,18.912 C150.3,18.296 150.3,17.768 150.3,17.416 C150.3,15.832 149.508,14.952 148.012,14.952 L147.396,14.952 L143.348,15.216 Z" transform="translate(-137 -14)"/>
</svg>
