<svg xmlns="http://www.w3.org/2000/svg" viewBox="0 0 330.7 253.02">
  <defs>
    <style>
      .cls-1{fill:none;}.cls-2{isolation:isolate;}.cls-3{clip-path:url(#clip-path);}.cls-4{fill:#04a64b;}.cls-5,.cls-8{mix-blend-mode:multiply;}.cls-5{fill:url(#linear-gradient);}.cls-6{opacity:0.6;}.cls-7{clip-path:url(#clip-path-2);}.cls-8{opacity:0.5;}.cls-9{fill:#1d1d1b;stroke:#1d1d1b;stroke-width:6.99px;}.cls-10{fill:#fff;}.cls-11{fill:#ffed00;}.cls-12{fill:#ffe500;}
    </style>
    <clipPath id="clip-path" transform="translate(-160.79 -254.63)">
      <path id="SVGID" class="cls-1" d="M162.2 261.75h327.89v218.59H162.2z"/>
    </clipPath>
    <linearGradient id="linear-gradient" x1="168.94" y1="116.41" x2="330.7" y2="116.41" gradientUnits="userSpaceOnUse">
      <stop offset="0" stop-color="#fff"/>
      <stop offset=".29" stop-color="#d9d9d8"/>
      <stop offset="1" stop-color="#7c7c7b"/>
    </linearGradient>
    <clipPath id="clip-path-2" transform="translate(-160.79 -254.63)">
      <path id="SVGID-2" data-name="SVGID" class="cls-1" d="M160.79 260.35h330.7v221.4h-330.7z"/>
    </clipPath>
  </defs>
  <g class="cls-2">
    <g class="cls-3" id="Layer_1" data-name="Layer 1">
      <path class="cls-4" d="M0 5.71h330.7v221.4H0z"/>
      <path class="cls-5" d="M168.94 5.71H330.7v221.4H168.94z"/>
      <path class="cls-6 cls-7 cls-4" d="M296.35 115.55q-11.7-7.26-34.79-12.58l-24.89-5.76q-18-4.18-25.42-10.28-7.65-5.84-9.23-13a29.46 29.46 0 0 1 2.68-19.64c3.37-6 9.6-10.08 18.68-12.1 11.77-2.62 23.32-2.87 34.17 3.34s18.75 17.32 25.68 30.17l10.5-2.34-13.14-59.06-9 2a10.27 10.27 0 0 1-2.85 4.06 12.24 12.24 0 0 1-6.57 3.48 105.09 105.09 0 0 1-18.79 1.22c-3.68-.07-7.2 0-10.59.25L227.21 0l-20.76 4.62 5.34 24c-18 4.75-31 14.11-39 27.31-8.48 14-10.38 31.56-6.86 47.41 2.8 12.59 8.94 23.55 18 31.18s22.08 12.8 39.74 17.15l33.5 8.05c7.22 1.77 12.57 3.71 16.17 5.89a27.78 27.78 0 0 1 12.36 17.86q2.58 11.58-3.2 20.31c-3.86 5.84-11 9.93-21.5 12.25-11.44 2.54-22 2.52-34.68-3.09s-22-15.25-29.8-31.54l-11.37 2.53 13.5 60.66 9.83-2.19c1.18-4.75 2.92-5.86 4.16-8.07a8 8 0 0 1 5.29-4 10 10 0 0 1 2.36-.32c.63 0 2.3.19 5.07.55l7.53.85a85.73 85.73 0 0 0 15.75.74 65 65 0 0 0 8.3-.85l4.82 21.67 20.68-4.6-4.83-21.73q26.19-8.21 36.71-28.44 12.11-23.3 7.06-46.08c-3.46-15.55-12-28.36-25-36.61"/>
      <path class="cls-8 cls-9" d="M113.06 84.58h-6.08l1.51-6.78h5.86l.75-3.55c1.24-5.81 5.22-9.41 11.46-9.41a27.84 27.84 0 0 1 7.21.86l-1.83 6.62a8.49 8.49 0 0 0-3.07-.7c-2.31 0-3.76 1.4-4.46 4.52l-.37 1.67h7.17l-1.51 6.78h-7.1l-4.39 21.24h-9.68zm33.26.44c-4.45 0-7.21 4.81-7.21 9.05 0 3.58 1.89 6 5 5.93 4.29 0 7-3.58 7-9.61 0-2.76-1.23-5.37-4.81-5.37m-2.86 21.42c-9.87 0-13.86-5.47-13.86-12.17 0-9.36 6.75-15.7 17.18-15.7 9 0 13.86 5.21 13.86 11.91 0 11.1-7.21 16-17.18 16m36.99-21.46c-4.45 0-7.21 4.81-7.21 9.05 0 3.58 1.89 6 5 5.93 4.3 0 7-3.58 7-9.61 0-2.76-1.23-5.37-4.81-5.37m-2.86 21.42c-9.87 0-13.86-5.47-13.86-12.17 0-9.36 6.75-15.7 17.18-15.7 9 0 13.86 5.21 13.86 11.91 0 11.1-7.21 16-17.18 16m41.13-15.43c0-2.66-1.33-5.42-4.4-5.42-4.35 0-7 4.14-7 8.28 0 3.27 1.48 5.47 4.4 5.47 4.34 0 7-4.81 7-8.33m-1.18 10.53h-.1c-2.35 3-4.55 4.86-9.66 4.86-5.73 0-9.92-5-9.92-11 0-8.75 4.4-16.87 13.5-16.87 4.65 0 7.87 2 9.25 4.91h.1l3.22-16h9.05l-7.16 34.36c-.31 1.58-.46 2.91-.56 4h-8.44zm74.58 41.56a29.31 29.31 0 0 0-7.66-4.87l-5.65-2.71a15.78 15.78 0 0 1-5.54-3.81 5.62 5.62 0 0 1-1.51-3.62 7.24 7.24 0 0 1 1.69-4.56 6.53 6.53 0 0 1 5.12-1.9c3 0 5.73.55 8 2.62s3.57 5.15 4.54 8.59h2.64v-14.83h-2.26a2.51 2.51 0 0 1-.9.82 3 3 0 0 1-1.75.48 25.73 25.73 0 0 1-4.57-.71q-1.31-.32-2.55-.5v-6.34h-5.22v6a15.15 15.15 0 0 0-10.79 4.46 16 16 0 0 0-4.17 11 13.8 13.8 0 0 0 2.64 8.42c1.73 2.31 4.6 4.24 8.6 6.22l7.59 3.71a14.64 14.64 0 0 1 3.55 2.27 6.81 6.81 0 0 1 2 4.93 6.22 6.22 0 0 1-1.85 4.69q-1.85 1.79-5.8 1.79a12.73 12.73 0 0 1-8.14-2.59c-2.73-2-4.46-4.82-5.45-9.14h-2.85v15.24h2.47a5.41 5.41 0 0 1 1.42-1.71 2 2 0 0 1 1.48-.68 2.35 2.35 0 0 1 .58.05 12.11 12.11 0 0 1 1.18.4l1.76.61a21.23 21.23 0 0 0 3.73 1 16.34 16.34 0 0 0 2 .24v5.44h5.22v-5.46q6.71-.57 10.3-4.85a16.27 16.27 0 0 0 4.14-10.65 13.89 13.89 0 0 0-4-10.1m-41.99-22.9c3.16 1.69 5.43 3.87 5.56 6.5a5.41 5.41 0 0 1-1.13 4.3 4.2 4.2 0 0 1-4.72 1.15c-1.89-.58-3.66-3.58-3.85-5.27a5 5 0 0 0-1.14-2.23c-2.09-2.27-4-2.86-5.95-2.7-3.3.26-5.77 1.87-7.44 5.86-1.43 3.4-1.7 6.65-1.7 11.15 0 6.42.38 10.09 2.73 14.44s5.38 6 9.15 6.47c4.72.6 9.79-.34 12.65-3.07l1.61 1.52a15.9 15.9 0 0 1-8.74 8.78 26.11 26.11 0 0 1-9.52 1.47 18.45 18.45 0 0 1-14.94-7.06c-3.87-4.7-5.8-12.17-5.8-18.94 0-7.14 1.57-12.54 5.67-17.56s9.82-7.06 16.86-7.06a21.8 21.8 0 0 1 10.7 2.25m-98.31 33.18h3.05c1.07 4.3 2.91 7.1 5.83 9.11a14.3 14.3 0 0 0 8.71 2.58c2.81 0 4.87-.59 6.19-1.78a6 6 0 0 0 2-4.68 6.58 6.58 0 0 0-2.14-4.92 15.75 15.75 0 0 0-3.8-2.26l-8.12-3.7c-4.26-2-7.32-3.9-9.18-6.2a13.1 13.1 0 0 1-2.83-8.39 15.35 15.35 0 0 1 4.45-11c3-2.89 7.13-4.46 12.45-4.46a33.07 33.07 0 0 1 7.37.82 28.92 28.92 0 0 0 4.88.71 3.34 3.34 0 0 0 1.86-.48 2.63 2.63 0 0 0 1-.81h2.4v14.79h-2.82c-1-3.43-2.44-6.53-4.84-8.56s-5.4-2.61-8.55-2.61c-2.44 0-4.26.63-5.46 1.9a6.9 6.9 0 0 0-1.8 4.54 5.44 5.44 0 0 0 1.61 3.61c1 1.23 3 2.5 5.92 3.8l6 2.7a32.15 32.15 0 0 1 8.2 4.85 13.38 13.38 0 0 1 4.3 10.06 15.62 15.62 0 0 1-4.41 10.62q-4.43 4.92-13.27 4.93a36.32 36.32 0 0 1-5.49-.31 24.05 24.05 0 0 1-4-1l-1.87-.61c-.68-.23-1.1-.37-1.26-.4a3.1 3.1 0 0 0-.62-.05 2.16 2.16 0 0 0-1.58.67 5.52 5.52 0 0 0-1.53 1.71h-2.64zm58.49-34.76a.67.67 0 0 0-.78-.64s-13.3 2.65-17.06 3v2.4a6.34 6.34 0 0 1 3.73 1.76c.63.79.95 2.27.95 4.43v29.09q0 3.63-1.34 5a6.22 6.22 0 0 1-3.34 1.39v2.48h22.13v-2.48a6.7 6.7 0 0 1-3.39-1.54q-.9-1-.9-4.42zm-81.05 37.59c-1.41 1.12-3.84 3-7 3a7 7 0 0 1-7-7c0-3.37 2.26-6.47 5.73-8.44a19.34 19.34 0 0 1 8.35-2.07zm16.54 6.17c.36 0-1.48.24-2.18-.52-.92-1-.85-2.64-.85-5.17v-18.13c0-5.54 0-8.28-1.13-11.47-3.09-8.73-13-9.23-18-9.23a27.33 27.33 0 0 0-15.38 4.78c-1.55 1.23-4.32 3.85-3.18 6.91a4.76 4.76 0 0 0 6 3.21c2.33-.51 3.77-3.06 4.55-5.68.88-3 4.53-5.18 8.2-5.18a4.34 4.34 0 0 1 4.41 2.94c.74 1.31 1 3.1 1 6.66v5.94c-7 .75-15.76 1.69-21.86 7.32a13.75 13.75 0 0 0-5.07 10.79c0 5 3.1 12.85 12.48 12.85a16.73 16.73 0 0 0 8-2.07 23.37 23.37 0 0 0 6.94-5.81c.09 1.6.38 5.35 4 7.41a7.48 7.48 0 0 0 3.37.84 15.07 15.07 0 0 0 6.47-1.13 10.65 10.65 0 0 0 4.35-3zm-68.41-2.59c-2.49 3.39-9.18 4-15.51 4v-31.13q8.41-.11 12.34 2.1c4.34 2.41 6.06 7 6.06 14.32 0 5.05-1.07 8.22-2.9 10.7m-1.59-53.78c1.11 2 1.86 5.48 1.86 9.22 0 5.28-.66 8.74-2.86 10.82s-6.51 3.11-12.92 3.11l-.08-27.2c6.34 0 11.86.3 14 4.05m14.83 27.38c-3.35-2.19-7.69-3.19-8.87-3.07a3.54 3.54 0 0 1-.36.05c-.44 0-.79 0-.79-.26s.35-.27.79-.27a2.85 2.85 0 0 1 .35 0h.25c1.39 0 4.84-.53 8.56-3.63 3.09-2.49 3.88-7.74 3.88-12 0-7-3.26-11.74-10.86-14.38-4-1.4-9.11-1.67-15.21-1.67H36.63v2.63q4.39.25 6.07 1.2 2.81 1.54 2.81 6v49.63c0 3-1 5.06-3 6.13a14.25 14.25 0 0 1-5.87 1.11v2.63h32.94c8.7 0 15.66-1.11 20.89-4.63s6.75-9.41 6.75-15.1c0-6.09-1.19-11.06-6.66-14.47"/>
      <path class="cls-10" d="M112.14 83.65h-6.08l1.51-6.78h5.86l.78-3.5c1.24-5.81 5.22-9.41 11.46-9.41a27.84 27.84 0 0 1 7.21.86l-1.86 6.55a8.49 8.49 0 0 0-3.07-.7c-2.31 0-3.76 1.4-4.46 4.52l-.37 1.67h7.21l-1.51 6.78h-7.1l-4.41 21.25h-9.68zm33.25.44c-4.45 0-7.21 4.81-7.21 9.05 0 3.58 1.89 6 5 5.93 4.29 0 7-3.58 7-9.61 0-2.76-1.23-5.37-4.81-5.37m-2.86 21.42c-9.87 0-13.86-5.47-13.86-12.17 0-9.36 6.75-15.7 17.18-15.7 9 0 13.86 5.21 13.86 11.91 0 11.1-7.21 16-17.18 16m37-21.46c-4.45 0-7.21 4.81-7.21 9.05 0 3.58 1.89 6 5 5.93 4.3 0 7-3.58 7-9.61 0-2.76-1.23-5.37-4.81-5.37m-2.86 21.42c-9.87 0-13.86-5.47-13.86-12.17 0-9.36 6.75-15.7 17.18-15.7 9 0 13.86 5.21 13.86 11.91 0 11.1-7.21 16-17.18 16m41.13-15.42c0-2.66-1.33-5.42-4.4-5.42-4.35 0-7 4.14-7 8.28 0 3.27 1.48 5.47 4.4 5.47 4.34 0 7-4.81 7-8.33m-1.18 10.53h-.1c-2.35 3-4.55 4.86-9.66 4.86-5.73 0-9.92-5-9.92-11 0-8.75 4.4-16.87 13.5-16.87 4.65 0 7.87 2 9.25 4.91h.1l3.22-16h9.05l-7.16 34.36c-.31 1.58-.46 2.91-.56 4h-8.44z"/>
      <path class="cls-11" d="M291.15 142.21a29.3 29.3 0 0 0-7.66-4.87l-5.65-2.71a15.78 15.78 0 0 1-5.54-3.81 5.62 5.62 0 0 1-1.51-3.62 7.24 7.24 0 0 1 1.69-4.56 6.53 6.53 0 0 1 5.11-1.9c3 0 5.73.55 8 2.62s3.57 5.15 4.54 8.59h2.64v-14.83h-2.26a2.52 2.52 0 0 1-.9.82 3 3 0 0 1-1.76.48 25.73 25.73 0 0 1-4.57-.71q-1.31-.32-2.55-.5v-6.34h-5.22v6a15.15 15.15 0 0 0-10.77 4.5 16 16 0 0 0-4.17 11 13.8 13.8 0 0 0 2.64 8.4c1.73 2.31 4.6 4.24 8.6 6.22l7.59 3.71a14.64 14.64 0 0 1 3.55 2.27 6.81 6.81 0 0 1 2 4.93 6.22 6.22 0 0 1-1.85 4.69q-1.85 1.79-5.8 1.79a12.73 12.73 0 0 1-8.14-2.59c-2.73-2-4.46-4.82-5.45-9.14h-2.85v15.24h2.47a5.41 5.41 0 0 1 1.42-1.71 2 2 0 0 1 1.48-.68 2.35 2.35 0 0 1 .58.05 12.11 12.11 0 0 1 1.18.4l1.76.61a21.24 21.24 0 0 0 3.73 1 16.33 16.33 0 0 0 2 .24v5.44h5.22v-5.46q6.71-.57 10.3-4.85a16.27 16.27 0 0 0 4.21-10.62 13.89 13.89 0 0 0-4-10.1m-42.05-22.95c3.16 1.69 5.43 3.87 5.56 6.5a5.41 5.41 0 0 1-1.13 4.3 4.2 4.2 0 0 1-4.72 1.15c-1.89-.58-3.66-3.58-3.85-5.27a5 5 0 0 0-1.14-2.23c-2.09-2.27-4-2.86-5.95-2.7-3.3.26-5.77 1.87-7.44 5.86-1.43 3.4-1.7 6.65-1.7 11.15 0 6.42.38 10.09 2.73 14.44s5.38 6 9.15 6.47c4.72.6 9.79-.34 12.65-3.07l1.61 1.52a15.9 15.9 0 0 1-8.74 8.78 26.11 26.11 0 0 1-9.52 1.47 18.45 18.45 0 0 1-14.94-7.06c-3.87-4.7-5.8-12.17-5.8-18.94 0-7.14 1.57-12.54 5.67-17.56s9.82-7.06 16.86-7.06a21.8 21.8 0 0 1 10.69 2.25m-98.31 33.18h3.05c1.07 4.3 2.91 7.1 5.83 9.11a14.3 14.3 0 0 0 8.71 2.58c2.81 0 4.87-.59 6.19-1.78a6 6 0 0 0 2-4.68 6.58 6.58 0 0 0-2.14-4.92 15.75 15.75 0 0 0-3.8-2.26l-8.12-3.7c-4.26-2-7.32-3.9-9.18-6.2a13.1 13.1 0 0 1-2.83-8.39 15.35 15.35 0 0 1 4.45-11c3-2.89 7.13-4.46 12.45-4.46a33.06 33.06 0 0 1 7.38.82 28.91 28.91 0 0 0 4.88.71 3.34 3.34 0 0 0 1.86-.48 2.63 2.63 0 0 0 1-.81h2.4v14.79h-2.86c-1-3.43-2.44-6.53-4.84-8.56s-5.4-2.61-8.55-2.61c-2.44 0-4.26.63-5.46 1.9a6.9 6.9 0 0 0-1.8 4.54 5.44 5.44 0 0 0 1.61 3.61c1 1.23 3 2.5 5.92 3.8l6 2.7a32.15 32.15 0 0 1 8.19 4.85 13.38 13.38 0 0 1 4.3 10.06 15.62 15.62 0 0 1-4.41 10.62q-4.43 4.92-13.27 4.93a36.31 36.31 0 0 1-5.49-.31 24 24 0 0 1-4-1l-1.87-.61c-.68-.23-1.1-.37-1.26-.4a3.1 3.1 0 0 0-.62-.05 2.17 2.17 0 0 0-1.58.67 5.51 5.51 0 0 0-1.53 1.71h-2.64zm58.5-34.76a.67.67 0 0 0-.78-.64s-13.3 2.65-17.06 3v2.47a6.34 6.34 0 0 1 3.73 1.76c.63.79.95 2.27.95 4.43v29.07q0 3.63-1.34 5a6.22 6.22 0 0 1-3.34 1.39v2.48h22.13v-2.48a6.7 6.7 0 0 1-3.39-1.54q-.9-1-.9-4.42zm-81.06 37.59c-1.41 1.12-3.84 3-7 3a7 7 0 0 1-7-7c0-3.37 2.26-6.47 5.73-8.44a19.34 19.34 0 0 1 8.35-2.07zm16.54 6.15c.36 0-1.48.24-2.18-.52-.92-1-.85-2.64-.85-5.17v-18.1c0-5.54 0-8.28-1.13-11.47-3.09-8.73-13-9.23-18-9.23a27.33 27.33 0 0 0-15.38 4.78c-1.55 1.23-4.32 3.85-3.18 6.91a4.76 4.76 0 0 0 6 3.21c2.33-.51 3.77-3.06 4.55-5.68.88-3 4.53-5.18 8.2-5.18a4.34 4.34 0 0 1 4.41 2.94c.74 1.31 1 3.1 1 6.66v5.94c-7 .75-15.76 1.69-21.86 7.32a13.75 13.75 0 0 0-5.07 10.79c0 5 3.1 12.85 12.48 12.85a16.73 16.73 0 0 0 8-2.07 23.36 23.36 0 0 0 6.94-5.81c.09 1.6.38 5.35 4 7.41a7.48 7.48 0 0 0 3.37.84 15.07 15.07 0 0 0 6.47-1.13 10.64 10.64 0 0 0 4.35-3zm-68.41-2.57c-2.49 3.39-9.18 4-15.51 4v-31.12q8.41-.11 12.34 2.1c4.34 2.41 6.06 7 6.06 14.32 0 5.05-1.07 8.22-2.9 10.7m-1.59-53.78c1.11 2 1.86 5.48 1.86 9.22 0 5.28-.66 8.74-2.86 10.82s-6.51 3.11-12.92 3.11l-.08-27.2c6.34 0 11.86.3 14 4.05m14.82 27.4c-3.35-2.19-7.69-3.19-8.87-3.07a3.54 3.54 0 0 1-.36.05c-.44 0-.79 0-.79-.26s.35-.27.79-.27a2.85 2.85 0 0 1 .35 0H81c1.39 0 4.84-.53 8.56-3.63 3.09-2.49 3.88-7.74 3.88-12 0-7-3.26-11.74-10.86-14.38-4-1.4-9.11-1.67-15.21-1.67H35.7v2.63q4.39.25 6.07 1.2c1.87 1 2.81 3 2.81 6v49.63c0 3-1 5.06-3 6.13a14.26 14.26 0 0 1-5.87 1.11v2.63h32.94c8.7 0 15.66-1.11 20.89-4.63s6.75-9.41 6.75-15.1c0-6.09-1.19-11.06-6.65-14.47"/>
    </g>
  </g>
</svg>
