<svg xmlns="http://www.w3.org/2000/svg" width="232" height="61" viewBox="0 0 232 61" xmlns:xlink="http://www.w3.org/1999/xlink">
  <defs>
    <polygon id="a" points="0 .032 0 32.893 35.568 32.893 35.568 .032 0 .032"/>
    <polygon id="c" points="29.954 24 29.954 .149 .076 .149 .076 24"/>
    <polygon id="e" points=".369 24.5 24.172 24.5 24.172 .107 .369 .107"/>
  </defs>
  <g fill="none" fill-rule="evenodd">
    <path fill="#0072BC" d="M34.4964959 2.2957C34.6272778 2.5327 34.6753814 3.0912 34.6753814 3.4837 34.1858263 3.7102 33.4006341 3.8767 32.6735672 3.9482 32.6259646 4.5777 32.6014117 5.7787 32.6014117 7.3127L32.6014117 15.0297C32.6014117 15.7312 32.6259646 16.4207 32.6735672 17.0507 33.4006341 17.1222 34.1858263 17.2887 34.6753814 17.5142 34.6753814 17.9077 34.6272778 18.4657 34.4964959 18.7032 33.7934808 18.6322 32.2797184 18.6082 31.4930229 18.6082 30.3971611 18.6082 29.4446082 18.7032 28.370794 18.7032 28.2530402 18.4897 28.1813857 17.9307 28.1813857 17.5142 28.9320035 17.4432 29.7893512 17.2167 30.3014549 17.0507 30.3971611 16.4682 30.421714 16.0997 30.421714 15.5647L30.421714 3.8647C28.370794 10.0712 26.6435715 15.1952 25.6674678 18.4657 24.9393987 18.6557 24.4037443 18.7507 23.6646514 18.7747 21.8652734 13.7097 20.1976795 9.2862 18.9580078 6.0407L18.4218523 3.8647 18.4218523 15.0297C18.4218523 15.7312 18.445403 16.4207 18.4935067 17.0507 19.2205737 17.1222 20.0057659 17.2887 20.495321 17.5142 20.495321 17.9077 20.4472173 18.4657 20.3159343 18.7032 19.6134203 18.6322 18.2554937 18.6082 17.5404527 18.6082 16.5032173 18.6082 15.7165218 18.7032 14.6442108 18.7032 14.5259559 18.4897 14.4543015 17.9307 14.4543015 17.5142 15.2049192 17.4432 16.062267 17.2167 16.5743706 17.0507 16.6700769 16.4682 16.6951309 16.0997 16.6951309 15.5647L16.6951309 7.3127C16.6951309 5.7787 16.6700769 4.5302 16.5743706 3.9482 16.062267 3.7817 15.2049192 3.5557 14.4543015 3.4837 14.4543015 3.0677 14.5259559 2.5097 14.6442108 2.2957 15.6448674 2.2957 16.5628458 2.3902 17.4918479 2.3902 18.3025952 2.3902 19.0767637 2.3902 19.8283836 2.4377 21.0670531 5.4582 23.2006514 10.5467 24.4388199 14.3752L24.7134117 16.4442C25.9290315 12.3427 27.8591914 6.4922 29.3007983 2.4377 30.0634419 2.3902 30.6717529 2.3902 31.4930229 2.3902 32.2797184 2.3902 33.7934808 2.3662 34.4964959 2.2957M43.0146039 15.8023L43.0146039 12.9368C41.930267 13.0073 39.3692475 13.5903 39.0114765 13.9473 38.7128328 14.2448 38.5229235 14.9098 38.5229235 15.4218 38.5229235 16.2658 39.0595801 17.0738 40.3458523 17.0738 41.4181633 17.0738 42.6693598 16.1233 43.0146039 15.8023M38.8796924 10.4758C38.5705261 10.6658 38.1295758 10.7608 37.7126773 10.7843 37.2712259 10.0833 36.8904052 9.3813 36.7591222 8.4543 37.986768 7.5268 39.4995283 6.8728 41.2032 6.8728 42.6448069 6.8728 45.1121244 7.4558 45.1121244 10.7133 45.1121244 12.1753 45.0635197 13.6618 45.0635197 15.3148 45.0635197 15.9568 45.1121244 16.6578 45.3030359 17.2408 45.886794 17.1693 46.4941028 17.0028 47.0072086 16.8488 47.2321935 17.0738 47.3760035 17.3953 47.3760035 17.7518 46.601835 18.4178 45.3501374 19.0003 44.4687378 19.0003 43.9210575 19.0003 43.5036579 18.2873 43.2055153 16.9078 42.6693598 17.4553 40.7747767 18.9293 39.1056795 18.9293 37.497714 18.9293 36.3422238 17.8238 36.3422238 16.0283 36.3422238 12.9843 40.6915974 11.8428 43.0146039 11.4743 43.0146039 9.6903 42.6448069 8.3828 40.9661892 8.3828 40.3458523 8.3828 39.5711827 8.5258 38.9633728 8.6688 38.8561417 9.2628 38.8561417 9.8338 38.8796924 10.4758M52.4041901 9.2864C53.1788596 8.0499 54.3343499 6.9204 55.8596371 6.9204 56.5867041 6.9204 57.3017451 7.0394 57.8384017 7.2294 57.8384017 8.5734 57.7066177 9.4054 57.3969503 10.4519 56.9565011 10.5939 56.5380994 10.5939 56.1217019 10.4519 56.0735983 9.9169 55.9783931 9.1794 55.8355853 8.7154 55.6566998 8.6919 55.4667905 8.6689 55.1921987 8.6689 54.2752225 8.6689 53.4524492 8.9649 52.4638186 10.5824L52.4638186 15.3149C52.4638186 15.9809 52.4883715 16.5634 52.5349719 17.1454 53.4644752 17.1934 54.6560432 17.3599 55.4186868 17.5859 55.4186868 17.9544 55.3710842 18.4654 55.275879 18.6799 53.9294773 18.6449 52.6061253 18.6319 51.4867127 18.6319 50.4860562 18.6319 49.5325011 18.6799 48.5313434 18.6799 48.4361382 18.4894 48.365486 17.9784 48.365486 17.5859 49.0444492 17.5144 49.8301425 17.3364 50.3191965 17.1694 50.390851 16.6339 50.4144017 16.2899 50.4144017 15.8024L50.4144017 12.5209C50.4144017 10.8679 50.2951447 9.1554 50.2951447 9.1554 49.6041555 8.9419 48.9011404 8.8469 48.1971231 8.7754 48.0663413 8.5019 48.0432916 8.2164 48.0663413 7.8954 48.9963456 7.5034 50.6519136 7.0394 51.927162 6.9444 52.0699698 7.3714 52.29746 8.2044 52.4041901 9.2864M65.9404631 8.71535C65.5350894 8.59735 65.0114609 8.54985 64.1170333 8.54985 63.2120829 8.54985 62.4489382 8.76335 62.234476 8.96485 61.651219 9.42935 60.911124 10.82085 60.911124 12.35385 60.911124 14.49435 61.6747698 17.16935 64.2367914 17.16935 65.3086013 17.16935 66.3573616 16.93185 67.871124 16.33735 68.1457158 16.51585 68.2639706 16.90785 68.2875214 17.26485 67.1911585 18.07335 65.2609987 18.92935 63.8183896 18.92935 60.3995214 18.92935 58.8386575 16.21835 58.8386575 13.10285 58.8386575 10.20185 60.8645235 6.94435 64.2122384 6.94435 66.0351672 6.94435 67.144057 7.44335 68.084584 7.84835 68.084584 8.84685 67.73934 10.14285 67.3700441 10.80835 67.0012492 10.86785 66.6199274 10.87985 66.191003 10.74935 66.1068216 10.09535 66.0351672 9.42935 65.9404631 8.71535M73.328235 8.1331C74.1735568 7.5501 75.7103689 6.8726 77.3078117 6.8726 79.4524337 6.8726 80.6795784 8.0621 80.6795784 10.7606L80.6795784 15.3151C80.6795784 15.9806 80.7036302 16.5631 80.7512328 17.1451 81.4061443 17.2171 82.1452371 17.3951 82.5861875 17.5861 82.5861875 17.9546 82.5375827 18.4656 82.4313538 18.6801 81.7759413 18.6446 80.2872328 18.6321 79.7029737 18.6321 78.7013149 18.6321 77.6771076 18.6801 76.7476043 18.6801 76.6523991 18.4896 76.5802436 17.9781 76.5802436 17.5861 77.2602091 17.5146 78.0459024 17.3361 78.5344553 17.1696 78.6061097 16.6341 78.6301616 16.2896 78.6301616 15.8021L78.6301616 11.7126C78.6301616 9.8931 78.3325201 8.5496 76.4018592 8.5496 75.1982652 8.5496 74.2096346 8.8471 73.328235 9.2631L73.328235 15.3151C73.328235 15.9806 73.3512847 16.5631 73.3998894 17.1451 74.0542998 17.2171 74.7938937 17.3951 75.234343 17.5861 75.234343 17.9546 75.1867404 18.4656 75.0795093 18.6801 74.4235957 18.6446 72.9343862 18.6321 72.3506281 18.6321 71.3504726 18.6321 70.3252631 18.6801 69.3962609 18.6801 69.2995525 18.4896 69.2289002 17.9781 69.2289002 17.5861 69.9078635 17.5146 70.694559 17.3361 71.1831119 17.1696 71.2537641 16.6341 71.2788181 16.2896 71.2788181 15.8021L71.2788181 7.2061C71.2788181 5.2686 71.2302134 2.1401 71.2302134 2.1401 70.5517512 1.9266 69.8362091 1.8311 69.133194 1.7596 69.0379888 1.4751 68.9658333 1.1771 69.0139369.8801 69.9319153.4881 71.7182652.0956 73.1132717.0001 73.2325287.3691 73.3758376 1.2481 73.3758376 2.1166 73.3758376 2.7351 73.328235 5.2686 73.328235 7.2061L73.328235 8.1331zM92.7861702.429C92.916451.5945 92.9765806.7845 92.9765806.9875 91.7724855 2.331 90.3313797 3.9 88.6738073 5.458 88.2458851 5.315 87.9116648 5.0535 87.7332803 4.7795 88.5911292 3.436 89.8658765 1.51 90.4140579.702 91.1887274.488 91.9869477.429 92.7861702.429M85.9810039 11.5335C86.7571767 11.5935 87.7207533 11.6175 88.615181 11.6175 89.9019542 11.6175 91.1055482 11.5455 91.4633192 11.474 91.3435611 9.762 90.9747663 8.454 88.8055914 8.454 88.1982825 8.454 87.3634834 8.7155 87.2211767 8.847 86.7446497 9.227 86.1719153 10.309 85.9810039 11.5335M93.5357857 17.1695C92.3933235 17.847 90.4140579 18.9295 88.8296432 18.9295 85.3386194 18.9295 83.8724596 16.361 83.8724596 13.103 83.8724596 10.0835 86.0526583 6.8725 89.1518376 6.8725 92.7145158 6.8725 93.512235 9.108 93.512235 11.224 93.512235 11.783 93.4170298 12.473 93.3463775 12.7105 92.3447188 12.806 90.9031119 12.889 89.3898505 12.889 88.2218333 12.889 87.0182393 12.8535 85.9339024 12.7705 86.0296086 14.8275 86.8393538 17.1695 89.2465417 17.1695 90.3188527 17.1695 91.6181529 16.8725 93.1193883 16.29 93.3924769 16.468 93.512235 16.801 93.5357857 17.1695"/>
    <g transform="translate(0 27.793)">
      <mask id="b" fill="white">
        <use xlink:href="#a"/>
      </mask>
      <path fill="#0072BC" d="M17.2348942,13.92895 C20.4954212,13.92895 22.2236458,12.84545 22.2236458,9.19845 C22.2236458,5.94645 21.2851231,4.51695 17.2348942,4.51695 L13.333486,4.51695 L13.333486,13.92895 L17.2348942,13.92895 Z M28.6319568,32.72945 C22.8184276,32.02695 20.8411663,29.63395 20.8411663,24.61745 L20.8411663,23.43945 C20.8411663,19.74495 19.9512484,18.41395 16.7413305,18.41395 L13.333486,18.41395 L13.333486,28.21145 L17.6292441,28.93595 L17.6292441,32.45895 L-0.000250539957,32.45895 L-0.000250539957,28.93595 L4.00037149,28.21145 L4.00037149,4.52145 L-0.000250539957,3.79695 L-0.000250539957,0.03245 L18.7175896,0.03245 C28.4956631,0.03245 32.0513261,4.07445 32.0513261,8.16295 C32.0513261,12.30295 29.4346868,15.47045 21.2360173,16.25895 L21.2360173,16.41695 C28.1434039,17.09595 30.1742808,19.31545 30.3231015,23.35745 L30.3717063,24.72545 C30.4714212,26.99245 30.6628337,27.95695 32.1851145,28.41495 C33.7083974,28.87395 35.567905,29.10345 35.567905,29.10345 L35.567905,32.45895 C35.567905,32.45895 32.6591361,33.21595 28.6319568,32.72945 L28.6319568,32.72945 Z" mask="url(#b)"/>
    </g>
    <path fill="#0072BC" d="M40.9811715,29.69805 C40.9811715,27.08605 42.8767568,25.01755 45.605638,25.01755 C48.3801175,25.01755 50.2306056,26.93755 50.2306056,29.50005 C50.2306056,32.11305 48.3340181,34.18255 45.605638,34.18255 C42.8311585,34.18255 40.9811715,32.26105 40.9811715,29.69805 L40.9811715,29.69805 Z M38.1976726,56.97605 L41.8024415,56.25005 L41.8024415,41.18455 L38.1976726,40.46155 L38.1976726,36.94255 L50.1489296,36.94255 L50.1489296,56.25005 L53.7536985,56.97605 L53.7536985,60.25205 L38.1976726,60.25205 L38.1976726,56.97605 Z"/>
    <polygon fill="#0072BC" points="139.407 56.976 143.011 56.25 143.011 30.393 139.407 29.668 139.407 26.149 151.358 26.149 151.358 56.25 154.962 56.976 154.962 60.252 139.407 60.252"/>
    <path fill="#0072BC" d="M160.458867,29.69805 C160.458867,27.08555 162.354452,25.01755 165.084335,25.01755 C167.859316,25.01755 169.707298,26.93755 169.707298,29.50005 C169.707298,32.11255 167.813216,34.18255 165.084335,34.18255 C162.309856,34.18255 160.458867,32.26105 160.458867,29.69805 L160.458867,29.69805 Z M158.056689,56.97605 L161.662962,56.25005 L161.662962,41.18455 L158.056689,40.46155 L158.056689,36.94255 L170.008949,36.94255 L170.008949,56.25005 L173.614219,56.97605 L173.614219,60.25205 L158.056689,60.25205 L158.056689,56.97605 Z"/>
    <g transform="translate(201.935 36.793)">
      <mask id="d" fill="white">
        <use xlink:href="#c"/>
      </mask>
      <path fill="#0072BC" d="M3.28568121,15.42505 L3.28568121,4.39155 L0.0757632829,3.66855 L0.0757632829,0.14905 L11.6321693,0.14905 L11.6321693,14.73555 C11.6321693,16.16505 11.8781996,17.29855 12.6182946,18.03805 C13.0151499,18.43305 13.7046359,18.72855 14.6436596,18.72855 C16.6685235,18.72855 18.3491456,16.60805 18.3491456,13.79955 L18.3491456,4.39155 L15.1377244,3.66855 L15.1377244,0.14905 L26.6946315,0.14905 L26.6946315,19.45705 L29.9541564,20.18305 L29.9541564,23.45905 L18.9394177,23.45905 L18.9394177,17.24905 C17.7067611,20.94505 15.2870462,23.99955 10.6936467,23.99955 C5.21133132,24.00005 3.28568121,20.30455 3.28568121,15.42505" mask="url(#d)"/>
    </g>
    <g transform="translate(55.119 36.293)">
      <mask id="f" fill="white">
        <use xlink:href="#e"/>
      </mask>
      <path fill="#0072BC" d="M19.2348043,16.7827 C18.3203335,18.6767 16.8005581,19.8182 14.542692,19.8182 C10.9865279,19.8182 8.96667473,16.7132 8.96667473,12.2302 C8.96667473,7.1057 11.4314868,4.0982 14.5922989,4.0982 C16.3200225,4.0982 17.4063637,4.6907 18.0983551,5.5272 C16.9614048,5.9707 15.9251715,7.0067 15.9251715,8.6827 C15.9251715,10.7022 17.3572579,12.4267 19.9252924,12.4267 C22.6912536,12.4267 24.1719447,10.6042 24.1719447,8.0417 C24.1719447,4.3452 20.9615257,0.1072 13.5555646,0.1072 C5.65253218,0.1072 0.368644492,5.1332 0.368644492,12.7232 C0.368644492,19.8687 5.25818229,24.5002 13.5049555,24.5002 C19.3194868,24.5002 22.6727136,21.2297 23.8953486,16.7827 L19.2348043,16.7827 Z" mask="url(#f)"/>
    </g>
    <path fill="#0072BC" d="M125.667335 40.0464C127.988838 40.0464 129.222998 41.4754 129.421425 46.4034L121.717322 46.4034C121.963352 41.5749 123.396441 40.0464 125.667335 40.0464L125.667335 40.0464zM132.531629 53.0759C131.607136 55.4739 130.021218 56.4569 127.494272 56.4569 124.038324 56.4569 122.011957 55.0779 121.717322 49.8034L137.469771 49.8034C137.915732 41.6744 134.014825 36.4004 125.766549 36.4004 118.557512 36.4004 113.17441 41.6744 113.17441 48.8179 113.17441 56.1109 118.210263 60.7929 126.211006 60.7929 133.041227 60.7929 136.174981 57.6069 137.067404 53.0759L132.531629 53.0759zM188.084054 40.0464C190.404054 40.0464 191.639216 41.4754 191.838645 46.4029L184.132537 46.4029C184.380071 41.5749 185.813159 40.0464 188.084054 40.0464L188.084054 40.0464zM194.948848 53.0759C194.024356 55.4739 192.438438 56.4569 189.911492 56.4569 186.454041 56.4569 184.430179 55.0774 184.132537 49.8034L199.887492 49.8034C200.332952 41.6739 196.432045 36.4004 188.183768 36.4004 180.973229 36.4004 175.589125 41.6739 175.589125 48.8174 175.589125 56.1109 180.627483 60.7929 188.627725 60.7929 195.459449 60.7929 198.5922 57.6064 199.485626 53.0759L194.948848 53.0759zM108.230105 56.25025L108.230105 44.97575C108.230105 40.09575 106.304454 36.40025 100.724429 36.40025 96.7729123 36.40025 94.4018022 38.76525 92.9687136 41.96925L92.9687136 26.14925 81.3642039 26.14925 81.3642039 29.66825 84.6232276 30.39325 84.6232276 56.25025 81.3642039 56.97625 81.3642039 60.25175 95.0261477 60.25175 95.0261477 56.97625 92.9687136 56.25025 92.9687136 46.60125C92.9687136 43.79225 94.6488346 41.67475 96.7729123 41.67475 97.7109339 41.67475 98.4019231 41.91975 98.8959879 42.41175 99.5879793 43.10275 99.8831153 44.18625 99.8831153 45.66475L99.8831153 56.25025 97.8281866 56.97625 97.8281866 60.25175 111.441025 60.25175 111.441025 56.97625 108.230105 56.25025z"/>
  </g>
</svg>
