<svg xmlns="http://www.w3.org/2000/svg" width="121" height="61" viewBox="0 0 121 61">
  <defs>
    <linearGradient id="a" x1="12.04%" x2="76.33%" y1="13.47%" y2="94.58%">
      <stop stop-color="#A7A9AC" offset="0%"/>
      <stop stop-color="#AAACAF" offset="1%"/>
      <stop stop-color="#C9CACC" offset="18%"/>
      <stop stop-color="#E1E1E2" offset="36%"/>
      <stop stop-color="#F2F2F2" offset="55%"/>
      <stop stop-color="#FCFCFC" offset="75%"/>
      <stop stop-color="#FFF" offset="100%"/>
    </linearGradient>
    <linearGradient id="b" x1="42513%" x2="42513%" y1="52676%" y2="34830%">
      <stop stop-color="#A7A9AC" offset="0%"/>
      <stop stop-color="#AAACAF" offset="1%"/>
      <stop stop-color="#C9CACC" offset="18%"/>
      <stop stop-color="#E1E1E2" offset="36%"/>
      <stop stop-color="#F2F2F2" offset="55%"/>
      <stop stop-color="#FCFCFC" offset="75%"/>
      <stop stop-color="#FFF" offset="100%"/>
    </linearGradient>
  </defs>
  <g fill="none" fill-rule="evenodd">
    <path fill="#EE3124" d="M0 0h60.5v61H0z"/>
    <path fill="#FFF" d="M10.83 13.5c.03.38.4 1.4 1.73 1.4.87 0 1.48-.32 1.48-.93 0-.56-.35-.76-1.45-1.1l-1.8-.58C9.47 11.83 8.37 11 8.37 9.64c0-2.07 2-3.08 4.53-3.08 3.1 0 3.58 1.65 3.8 2.2l-2.6.8c-.07-.33-.43-1.06-1.44-1.06-.98 0-1.42.38-1.42.86 0 .57.32.72 1.45 1.1l1.95.65c1.43.5 2.28 1.23 2.28 2.56 0 1.46-1.07 3.2-4.55 3.2-3.26 0-3.9-1.82-4.13-2.44l2.57-.92zm15.04 3.15h-2.83v-.97c-1.24.93-1.8 1.16-2.82 1.16-1.75 0-2.28-1.1-2.28-2.54V8.32h2.84v5.48c0 .56.17.9.84.9.5 0 .8-.2 1.42-.68v-5.7h2.83v8.33zm1.46-8.33h2.83v.85c.73-.57 1.32-1.04 2.43-1.04 2.66 0 3.16 2.37 3.16 4.24 0 2.1-.5 4.47-3.1 4.47-.7 0-1.5-.15-2.5-1.08v3.58h-2.83V8.32zm2.83 5.95c.38.32.73.64 1.35.64 1.28 0 1.36-1.55 1.36-2.3 0-1.05-.06-2.54-1.38-2.54-.57 0-.92.3-1.3.68v3.53h-.02zm15.25-1.74v.66h-5.63c0 .54 0 1.8 1.42 1.8.9 0 1.22-.63 1.42-1.03l2.4.73c-.8 1.57-2.02 2.14-3.87 2.14-3.6 0-4.26-2.82-4.26-4.32 0-2.42 1.45-4.4 4.25-4.4 2.38 0 4.27 1.3 4.27 4.4zm-2.78-1.04c-.03-.53-.17-1.64-1.38-1.64-1.32 0-1.47 1.12-1.47 1.63h2.85zm3.8-3.18h2.84v1.34h.03c.56-1.05 1.83-1.44 2.43-1.44.17 0 .34 0 .5.04v2.34c-.3-.1-.6-.15-.9-.13-.8-.03-1.57.3-2.08.93v5.25h-2.82V8.32z"/>
    <path fill="#00A94F" d="M60.5 0H121v61H60.5z"/>
    <path fill="#FFF" d="M68.75 22.27h3.43c.54 0 1.08.04 1.52.36.47.35.75.9.75 1.5 0 .73-.48 1.37-1.2 1.54v.02c.8.1 1.4.8 1.37 1.6 0 .6-.2 1.3-.72 1.65-.54.4-1.3.4-1.94.4h-3.2v-7.08zm2.86 2.7c.2 0 .46.02.6-.12.14-.13.2-.3.22-.47 0-.53-.43-.6-.85-.6h-.84v1.2h.88zm.07 2.8c.2 0 .45 0 .62-.14.15-.1.25-.3.25-.5 0-.23-.13-.44-.34-.55-.2-.07-.4-.1-.62-.1h-.85v1.3h.93zm9.2-.18c-.32 1.27-1.45 1.85-2.7 1.85-.76 0-1.5-.16-2.1-.7-.56-.5-.87-1.22-.86-1.97 0-.74.28-1.45.77-2 .56-.54 1.3-.83 2.1-.8 1.73 0 2.8 1.12 2.8 2.87v.27h-3.52c0 .57.2 1 .8 1 .46 0 .72-.2.8-.65l1.9.12zm-2.06-1.5c0-.52-.15-.92-.72-.92-.54 0-.73.43-.73.9h1.46zm6.13 3.25c-.06-.24-.08-.48-.08-.73-.4.6-1 .84-1.7.84-.98 0-1.83-.54-1.83-1.6 0-.83.64-1.4 1.37-1.62.66-.2 1.36-.3 2.05-.33v-.03c0-.47-.12-.66-.6-.66-.4 0-.75.16-.8.6l-1.88-.17c.3-1.3 1.55-1.66 2.73-1.66.6 0 1.4.1 1.9.46.7.5.6 1.17.6 1.92v1.85c0 .4.05.8.18 1.16h-1.95zm-.17-2.46c-.5.04-1.32.2-1.32.83 0 .34.22.5.54.5.77 0 .78-.66.78-1.24v-.1zm5.9 2.45v-.86c-.23.66-.93.96-1.6.96-.43.02-.85-.12-1.17-.4-.38-.38-.42-.84-.42-1.34v-3.65h2.03v3.2c0 .34 0 .7.46.7.2 0 .4-.1.5-.3.07-.17.1-.36.1-.56v-3.03h2.02v5.28h-1.9zM95.73 29.36h-1.95v-1.9h1.95M68.75 33.96h3.43c.54 0 1.08.04 1.52.36.47.35.75.9.75 1.5 0 .73-.5 1.37-1.2 1.54v.02c.8.1 1.4.8 1.37 1.6 0 .62-.22 1.3-.72 1.66-.54.4-1.3.4-1.94.4h-3.2v-7.08zm2.86 2.7c.2 0 .46 0 .6-.12.14-.12.2-.3.22-.47 0-.52-.44-.6-.85-.6h-.84v1.2h.88zm.07 2.8c.2 0 .45 0 .62-.14.17-.12.26-.33.25-.55-.02-.2-.15-.4-.34-.5-.2-.08-.4-.1-.62-.1h-.85v1.3h.93zm9.26-1c0 1.6-1.28 2.7-2.88 2.7-1.6 0-2.88-1.1-2.88-2.7 0-1.7 1.23-2.8 2.88-2.8 1.64 0 2.88 1.1 2.88 2.8zm-3.6-.08c0 1.4.34 1.52.72 1.52.37 0 .7-.1.7-1.52 0-.5 0-1.43-.7-1.43s-.7.92-.7 1.43zm4.2-2.62h1.92v.75h.02c.25-.6.85-.84 1.5-.84.48 0 1.04.15 1.35.55.34.44.34 1.04.34 1.6v3.24h-2.04v-3.2c0-.32 0-.76-.44-.76-.57 0-.62.48-.62.92v3.05h-2.03v-5.3zM89.58 41.05h-1.96v-1.9h1.96"/>
    <path fill="#FFF200" d="M70.93 52.74h-2.18v-7.1h2.87c.7 0 1.46.03 2.06.38.65.4 1.05 1.1 1.04 1.86.02.67-.26 1.3-.77 1.74-.55.44-1.24.54-1.92.54h-1.1v2.58zm.57-4.1c.5 0 1.08-.03 1.08-.7 0-.62-.53-.67-1.02-.67h-.63v1.38h.57zm7.04 4.1c-.05-.24-.07-.5-.07-.74-.4.6-1 .84-1.7.84-1 0-1.84-.53-1.84-1.6 0-.83.65-1.38 1.37-1.6.68-.2 1.37-.3 2.06-.34v-.04c0-.48-.12-.66-.6-.66-.4 0-.75.14-.8.58L75.07 49c.3-1.3 1.55-1.64 2.73-1.64.63 0 1.4.08 1.93.45.68.5.6 1.18.6 1.94v1.85c-.02.38.04.77.17 1.14h-1.96zm-.18-2.47c-.5.05-1.3.2-1.3.84 0 .35.2.5.53.5.76 0 .76-.65.76-1.23v-.1zm4.1.75c.1.5.66.57 1.1.57.2 0 .78-.03.78-.35 0-.26-.7-.32-.88-.34-1.1-.14-2.4-.36-2.4-1.77 0-.57.32-1.1.8-1.38.53-.3 1.1-.43 1.7-.4.98 0 2 .38 2.36 1.37l-1.55.3c-.15-.36-.55-.46-.9-.46-.37 0-.66.12-.66.28 0 .15.15.22.3.26.3.06.6.1.9.13.47.06 1 .12 1.42.4.47.27.75.8.74 1.34 0 1.46-1.53 1.87-2.7 1.87-1.2 0-2.25-.38-2.64-1.6l1.63-.22zm12.23-.26c-.2 1.35-1.16 2.08-2.5 2.08-.75 0-1.37-.17-1.92-.72-.5-.54-.8-1.26-.78-2 0-1.6 1.1-2.77 2.7-2.77 1.3 0 2.3.77 2.47 2.1l-1.8.15v-.05c-.08-.37-.16-.78-.6-.78-.66 0-.66.86-.66 1.32 0 .5.02 1.3.7 1.3.43 0 .6-.4.64-.8l1.75.16zm.52-5.1h2.03v2.42c.35-.47.9-.74 1.48-.73.5 0 1.05.15 1.34.58.3.44.3.96.3 1.5v3.3h-2.03v-3.28c0-.35-.07-.65-.5-.65-.32 0-.6.24-.6.76v3.18h-2.02v-7.1zm11.45 5.3c-.32 1.3-1.45 1.88-2.7 1.88-.76 0-1.5-.17-2.1-.7-.56-.5-.87-1.22-.85-1.98 0-.74.26-1.45.76-2 .53-.55 1.33-.8 2.08-.8 1.74 0 2.8 1.13 2.8 2.86v.28h-3.5c0 .57.18.98.8.98.46 0 .7-.18.8-.64l1.9.13zm-2.05-1.48c0-.5-.17-.92-.74-.92-.53 0-.72.43-.72.92h1.46zm4.46-.94c.17-.73.55-1.25 1.36-1.2l.28.03v1.86c-.13-.04-.26-.06-.4-.06-.32 0-.66.07-.82.37-.15.25-.15.6-.15.9v2.3h-2.03v-5.28h1.74v1.08h.02zM112.72 52.74h-1.96v-1.9h1.96"/>
    <path fill="#FFEF00" d="M36.76 41.13c-1.57 2.27-4.42 3.24-7.03 2.4-2.62-.82-4.4-3.26-4.4-6.03 0-2.76 1.78-5.2 4.4-6.04 2.6-.83 5.46.15 7.03 2.4l7.24-5.1c-3.8-5.44-10.64-7.8-16.93-5.8-6.3 2-10.57 7.9-10.57 14.54 0 6.65 4.28 12.53 10.57 14.53 6.3 2 13.14-.34 16.93-5.8l-7.24-5.1z"/>
    <path fill="url(#a)" d="M31.62 52.74c-6.43 0-11.1-5.25-11.35-11.77C20 34.45 24.6 29.7 30.03 29.7c2.84 0 5.44 1.6 6.73 4.17-1.58-2.26-4.42-3.24-7.04-2.4-2.6.83-4.4 3.27-4.4 6.03 0 2.76 1.8 5.2 4.4 6.04 2.62.83 5.46-.14 7.04-2.4l7.23 5.1c-2.83 4.07-7.45 6.5-12.38 6.5z" style="mix-blend-mode:multiply"/>
    <path fill="url(#b)" d="M20.26 40.98c-.26-6.53 4.35-11.3 9.77-11.3 2.84.03 5.44 1.64 6.72 4.2l7.24-5.1c-4.12-5.93-11.8-8.12-18.38-5.26-6.58 2.86-10.26 10-8.8 17.07 1.44 7.07 7.62 12.14 14.8 12.14-6.43 0-11.1-5.25-11.36-11.76z" style="mix-blend-mode:multiply"/>
  </g>
</svg>
