<svg xmlns="http://www.w3.org/2000/svg" width="191" height="60" viewBox="0 0 191 60">
  <g fill="none" fill-rule="evenodd">
    <rect width="190.726" height="59.976" fill="#0098D6"/>
    <path fill="#FFFFFF" d="M64.5289873 41.2297297L73.3939662 41.2297297C76.4402954 41.2297297 78.2294093 39.6081081 78.2294093 36.6648649 78.2294093 33.7216216 76.4644726 32.2216216 73.3939662 32.2216216L64.5289873 32.2216216 64.5289873 41.2297297zM64.5289873 28.5891892L72.7170042 28.5891892C75.1347257 28.5891892 76.9318987 27.1783784 76.9318987 24.5918919 76.9318987 21.6810811 75.4490295 20.6351351 72.7170042 20.6351351L64.5289873 20.6351351 64.5289873 28.5891892zM59.5162447 16.5162162L73.4423207 16.5162162C78.5759494 16.5162162 81.9527004 18.8594595 81.9527004 23.6594595 82.0371258 26.3768843 80.3901851 28.8460182 77.858692 29.7972973L77.858692 29.8783784C81.34827 30.6486486 83.2340928 33.3891892 83.2340928 37.3054054 83.2340928 41.8297297 80.0991139 45.3405405 72.6767089 45.3405405L59.5081857 45.3405405 59.5081857 16.5162162 59.5162447 16.5162162zM86.1272996 24.4702703L90.4227848 24.4702703 90.4227848 28.9540541 90.5033755 28.9540541C91.3793744 26.3034622 93.7901041 24.4715127 96.5637975 24.3486486 97.1409734 24.3431322 97.7176715 24.3838009 98.2884388 24.4702703L98.2884388 28.9135135C97.637707 28.8055339 96.9810012 28.737839 96.3220253 28.7108108 93.1951055 28.7108108 90.6806751 31.2567568 90.6806751 35.8540541L90.6806751 45.3405405 86.1031224 45.3405405 86.1031224 24.4702703 86.1272996 24.4702703zM119.282321 45.3486486L114.785359 45.3486486 114.785359 42.4378378 114.704768 42.4378378C113.476561 44.5526143 111.239719 45.8684528 108.805527 45.9081081 103.389831 45.9081081 101.060759 43.1594595 101.060759 37.7108108L101.060759 24.4702703 105.638312 24.4702703 105.638312 37.272973C105.638312 40.9459459 107.121181 42.2756757 109.611435 42.2756757 113.423376 42.2756757 114.704768 39.8432432 114.704768 36.6L114.704768 24.4702703 119.282321 24.4702703 119.282321 45.3486486zM123.070084 24.4702703L127.405865 24.4702703 127.405865 27.5351351 127.486456 27.6162162C128.822111 25.3087651 131.279657 23.893259 133.933713 23.9027027 138.430675 23.9027027 141.275527 26.3351351 141.275527 31.0135135L141.275527 45.3486486 136.770506 45.3486486 136.770506 32.2216216C136.689916 28.9783784 135.408523 27.5351351 132.74097 27.5351351 129.694641 27.5351351 127.728228 29.9675676 127.728228 33.0243243L127.728228 45.3405405 123.070084 45.3405405 123.070084 24.4702703zM159.190844 33.072973C159.029662 30.1621622 157.063249 27.5432432 153.976624 27.5432432 150.89 27.5432432 148.641519 29.9756757 148.520633 33.072973L159.198903 33.072973 159.190844 33.072973zM148.512574 36.1054054C148.512574 39.3486486 150.277511 42.2837838 154.089451 42.2837838 156.740886 42.2837838 158.344641 41.1162162 159.142489 38.8135135L163.47827 38.8135135C162.470886 43.3783784 158.642827 45.9243243 154.089451 45.9243243 147.585781 45.9243243 143.935021 41.3594595 143.935021 34.9378378 143.935021 29.0027027 147.787257 23.9108108 153.968565 23.9108108 160.512532 23.9108108 164.525949 29.8459459 163.760338 36.072973L148.512574 36.072973 148.512574 36.1054054zM164.574304 24.4702703L168.023586 24.4702703 168.023586 18.2108108 172.601139 18.2108108 172.601139 24.4702703 176.735443 24.4702703 176.735443 27.9 172.601139 27.9 172.601139 39.0486486C172.601139 40.9459459 172.762321 41.9189189 174.809325 41.9189189 175.455558 41.9451529 176.102531 41.8906834 176.735443 41.7567568L176.735443 45.2837838C175.728059 45.3648649 174.76903 45.527027 173.761646 45.527027 168.982616 45.527027 168.120295 43.6702703 168.023586 40.2L168.023586 27.9 164.574304 27.9 164.574304 24.4702703z"/>
    <path fill="#7AD0E4" stroke="#7AD0E4" stroke-width=".3" d="M27.8118565 14.0189189C20.5141048 14.9092202 14.7626385 20.6956821 13.8777215 28.0378378L27.8118565 28.0378378 27.8118565 14.0189189zM45.5740506 28.0378378C44.6883528 20.6930393 38.9327459 14.9057589 31.6318565 14.0189189L31.6318565 28.0378378 45.5740506 28.0378378zM13.8696624 31.8810811C14.751139 39.2263936 20.503419 45.0170212 27.8037975 45.9081081L27.8037975 31.8810811 13.8696624 31.8810811zM31.6318565 45.9081081C38.935373 45.0204835 44.6917942 39.2290366 45.5740506 31.8810811L31.6318565 31.8810811 31.6318565 45.9081081z"/>
  </g>
</svg>
