<svg xmlns="http://www.w3.org/2000/svg" width="172" height="38" viewBox="0 0 172 38">
  <g fill="#EE4037" fill-rule="evenodd">
    <path d="M151.253933 37.9011111C149.842651 37.9011111 148.519574 37.7722222 147.273677 37.5211111 146.550395 37.4055556 145.840344 37.2211111 145.187626 36.9988889 143.377215 36.4122222 141.798344 35.5455556 140.499523 34.4366667 139.222754 33.3255556 138.197369 31.9811111 137.507164 30.4211111 136.803728 28.8677778 136.439882 27.0744444 136.439882 25.1411111 136.439882 24.2388889 136.519267 23.2944444 136.678036 22.3344444 137.105831 19.7922222 137.983472 17.5433333 139.211728 15.6166667 140.4466 13.69 142.014446 12.0722222 143.829267 10.7566667 147.421421 8.16777778 151.935318 6.82777778 156.387472 6.82777778L156.435985 6.82777778C158.636703 6.82777778 160.969728 7.20555556 163.119728 8.01 164.233318 8.42555556 165.309421 8.97444444 166.286292 9.65888889 167.695369 10.6611111 168.903779 11.9255556 169.748344 13.5411111 170.601728 15.1477778 171.104497 17.1011111 171.104497 19.3766667 171.104497 20.3277778 171.022908 21.3233333 170.837677 22.3944444 170.354754 25.3477778 169.311728 27.8055556 167.896036 29.81 166.493574 31.8322222 164.736087 33.3922222 162.833062 34.5788889 159.0226 36.9633333 154.656446 37.89 151.302446 37.9011111L151.253933 37.9011111zM150.360856 30.2833333C150.982703 30.5433333 151.703779 30.6766667 152.431472 30.6766667L152.479985 30.6766667C153.410549 30.6766667 154.239677 30.4722222 155.013677 30.09 155.785472 29.7433333 156.480087 29.1944444 157.057831 28.4588889 157.675267 27.7388889 158.171421 26.8522222 158.5926 25.7944444 159.011574 24.7544444 159.326908 23.55 159.556241 22.1744444 159.7106 21.2188889 159.803215 20.3277778 159.803215 19.5255556 159.803215 18.6788889 159.7106 17.9122222 159.5386 17.2411111 159.346754 16.5722222 159.077728 16.0011111 158.702856 15.5188889 158.208908 14.8944444 157.525318 14.4522222 156.658703 14.2277778 156.228703 14.1211111 155.741369 14.0588889 155.223164 14.0588889L155.168036 14.0588889C153.441421 14.0588889 151.8846 14.7255556 150.651933 16.0877778 150.014651 16.7677778 149.478805 17.6255556 149.035574 18.67 148.587933 19.71 148.224087 20.9255556 148.0146 22.3344444 147.833779 23.3677778 147.749985 24.2744444 147.749985 25.0788889L147.749985 25.1188889C147.749985 27.2188889 148.292446 28.6011111 149.145831 29.47 149.509677 29.8322222 149.908805 30.09 150.360856 30.2833333L150.360856 30.2833333zM113.996308 7.81377778L125.055026 7.81377778C125.055026 7.81377778 124.589744 10.3248889 124.406718 11.3271111L124.395692 11.4226667 124.459641 11.3626667C125.773897 10.0182222 127.392462 9.12933333 128.759641 8.54488889 130.151077 7.956 131.31759 7.64488889 131.749795 7.56488889 132.279026 7.44044444 132.885436 7.34488889 133.509487 7.29822222 134.151179 7.23377778 134.810513 7.20711111 135.443385 7.20711111 136.054205 7.20711111 136.638564 7.23377778 137.130308 7.27155556L137.94841 7.37155556 135.983641 17.2804444 135.271385 17.2804444C134.733333 17.2115556 134.151179 17.1937778 133.551385 17.1937778 132.69359 17.1937778 131.822564 17.2315556 131.022103 17.336 130.228256 17.4426667 129.518205 17.6004444 128.988974 17.7982222 127.796 18.2004444 126.801487 18.6426667 125.976769 19.1515556 125.145436 19.6382222 124.481692 20.1848889 123.93041 20.816 123.381333 21.4182222 122.957949 22.1026667 122.622769 22.8648889 122.276564 23.6271111 122.018564 24.476 121.789231 25.4226667 121.043897 28.6026667 119.482667 37.0471111 119.482667 37.0471111L108.494513 37.056 113.996308 7.81377778zM91.1763179 34.8828889C90.1024205 34.034 89.1917026 33.0073333 88.563241 31.8228889 87.9083179 30.614 87.5356513 29.194 87.5356513 27.5695556 87.5356513 26.814 87.617241 26.0051111 87.8024718 25.1562222L90.1024205 14.7828889 86.0383692 14.7828889 87.3283692 7.814 91.3108308 7.814 92.2281641 2.954 103.227344.000666666667 101.701395 7.814 108.868062 7.814 107.606728 14.7828889 100.636318 14.7828889 98.6164205 23.7473333C98.5193949 24.2028889 98.4708821 24.654 98.4708821 25.0806667 98.4841128 25.7117778 98.5634974 26.3162222 98.7222667 26.8673333 99.5580103 29.7495556 102.067446 29.9851111 104.612164 29.6406667L103.317754 37.0562222C103.317754 37.0562222 101.370626 37.5162222 98.7884205 37.5162222L98.7818051 37.5162222C96.1753436 37.5917778 93.3373436 36.5984444 91.1763179 34.8828889M62.9065744 37.5984444C62.5361128 37.5606667 62.1634462 37.4962222 61.8106256 37.4184444 60.8403692 37.2251111 59.9164205 36.9984444 59.0520103 36.6784444 54.8446256 35.1451111 51.3472923 30.5228889 51.3384718 24.6695556L51.3384718 24.654C51.3384718 23.9828889 51.3891897 23.2828889 51.4818051 22.574 51.7905231 20.3162222 52.3638564 18.2006667 53.2216513 16.3028889 54.0838564 14.4095556 55.2503692 12.7073333 56.7410359 11.3273333 58.2250872 9.92733333 60.0443179 8.80511111 62.2229846 8.04733333 64.3840103 7.27177778 66.9132923 6.87177778 69.8439077 6.86288889 70.0754462 6.86288889 70.3180103 6.87177778 70.5407282 6.87177778 71.9961128 6.90955556 73.4845744 7.174 74.8936513 7.66733333 74.9950872 7.71177778 75.0899077 7.734 75.1847282 7.76955556 76.6886256 8.32066667 78.1263692 9.12955556 79.3788821 10.2028889 80.6071385 11.2651111 81.647959 12.5651111 82.3932923 14.1206667 83.1231897 15.6806667 83.5553949 17.474 83.5553949 19.5117778 83.5553949 20.7295556 83.3922154 22.0317778 83.0658564 23.4428889L82.9269333 24.0073333 82.2808308 24.0073333 61.3740103 23.934 61.3585744 23.9495556C61.3497538 24.0784444 61.3497538 24.1806667 61.3497538 24.3095556 61.3497538 25.9562222 62.1325744 27.6384444 63.5416513 28.9162222 64.3575487 29.6584444 65.3917538 30.2673333 66.6001641 30.6428889 67.4557538 30.9162222 68.4105744 31.0584444 69.4469846 31.0584444 69.7270359 31.0584444 70.0114974 31.0584444 70.3180103 31.0295556 73.1383692 30.8095556 76.0425231 30.4962222 79.2487795 29.1762222L80.7063692 28.5717778 78.1263692 35.8184444 77.8507282 35.9584444C75.4008308 37.1362222 71.3323692 37.9006667 67.2131897 37.9006667L67.1580615 37.9006667C65.7225231 37.9006667 64.2958051 37.7984444 62.9065744 37.5984444L62.9065744 37.5984444zM73.8814974 18.2295556L73.8903179 18.2117778C73.9233949 17.8673333 73.9542667 17.5428889 73.9542667 17.2295556L73.9542667 17.2117778C73.9542667 15.8917778 73.5397026 14.8095556 72.7921641 14.0851111 72.273959 13.5828889 71.5969846 13.2451111 70.7678564 13.0828889 70.3841641 13.0028889 69.9784205 12.9517778 69.5440103 12.9517778L69.4866769 12.9517778C66.3664205 12.9762222 63.8569846 14.894 62.7588308 18.2006667L62.7566256 18.2295556 73.8814974 18.2295556zM16.7435385 37.0802222L20.8869744 18.1357778C20.9244615 17.9335556 20.9553333 17.7646667 20.9553333 17.5957778L20.9553333 17.5713333C20.9553333 16.9735556 20.7039487 16.4202222 20.3070256 16.0513333 20.141641 15.8935556 19.9431795 15.758 19.7226667 15.6602222 19.4051282 15.5024444 19.0368718 15.4246667 18.6333333 15.4246667 17.0434359 15.4468889 15.5637949 16.6113333 15.2264103 18.1157778L10.9969744 37.0802222 0 37.0802222 3.84794872 18.9757778C4.19635897 17.3646667 4.66605128 15.7668889 5.33641026 14.2913333 6.00015385 12.8313333 6.85794872 11.4691111 7.96051282 10.3491111 9.06528205 9.21133333 10.4082051 8.25577778 12.0730769 7.60688889 13.7555897 6.94466667 15.7225641 6.59577778 18.0798462 6.59577778 18.5274872 6.59577778 19.0104103 6.59577778 19.5065641 6.63133333 20.0953333 6.67133333 20.6620513 6.74244444 21.2045128 6.84022222 23.9300513 7.358 26.0183077 8.72244444 27.5839487 10.5757778L27.5971795 10.5891111 27.6324615 10.5757778C29.0525641 9.478 30.7483077 8.49133333 32.5675385 7.78911111 34.3713333 7.08022222 36.2699487 6.64244444 38.0759487 6.63133333L38.2920513 6.63133333C39.714359 6.63133333 40.9823077 6.74688889 42.0628205 7.00022222 42.4553333 7.09133333 42.8191795 7.18244444 43.1742051 7.298 44.5127179 7.73355556 45.5998462 8.37355556 46.4377949 9.14466667 47.2625128 9.92911111 47.8777436 10.8935556 48.2768718 11.9602222 48.6671795 13.0113333 48.8435897 14.2068889 48.8435897 15.4824444 48.8435897 16.5713333 48.7134872 17.7646667 48.4532821 18.9535556L44.6362051 37.0802222 33.5311795 37.0802222 37.3857436 18.2291111C37.4122051 18.0402222 37.4342564 17.8691111 37.4342564 17.7002222L37.4342564 17.678C37.4342564 17.1002222 37.1961026 16.5357778 36.7837436 16.1335556 36.6404103 16.0268889 36.4948718 15.918 36.3118462 15.8157778 35.9832821 15.6291111 35.5709231 15.5335556 35.1343077 15.5335556L35.1166667 15.5335556C33.5311795 15.5557778 32.0515385 16.7002222 31.7075385 18.2113333L28.0029231 37.0802222 16.7435385 37.0802222z"/>
  </g>
</svg>
