<svg xmlns="http://www.w3.org/2000/svg" width="232" height="61" viewBox="0 0 232 61" xmlns:xlink="http://www.w3.org/1999/xlink">
  <defs>
    <path id="a" d="M0 .032v32.86h35.568V.032H0z"/>
    <path id="c" d="M29.954 24V.15H.076V24z"/>
    <path id="e" d="M.37 24.5h23.8V.107H.37z"/>
  </defs>
  <g fill="none" fill-rule="evenodd">
    <path fill="#0072BC" d="M34.496 2.296c.13.237.18.795.18 1.188-.49.226-1.275.393-2.002.464-.048.63-.073 1.83-.073 3.365v7.717c0 .7.03 1.39.08 2.02.73.072 1.51.24 2 .464 0 .394-.04.952-.18 1.19-.7-.072-2.21-.096-3-.096-1.09 0-2.05.095-3.12.095-.11-.213-.19-.772-.19-1.19.75-.07 1.61-.296 2.12-.462.1-.58.12-.95.12-1.48V3.87c-2.05 6.205-3.78 11.33-4.75 14.6-.73.19-1.26.285-2 .31-1.8-5.066-3.47-9.49-4.71-12.735l-.54-2.175v11.16c0 .7.03 1.39.07 2.02.73.072 1.51.24 2 .464 0 .394-.04.952-.18 1.19-.7-.072-2.06-.096-2.77-.096-1.03 0-1.82.095-2.89.095-.12-.213-.19-.772-.19-1.19.75-.07 1.6-.296 2.12-.462.09-.58.12-.95.12-1.48V7.32c0-1.534-.03-2.783-.12-3.365-.52-.166-1.37-.392-2.12-.464 0-.41.07-.97.19-1.19 1 0 1.92.1 2.84.1.81 0 1.59 0 2.34.05 1.24 3.02 3.38 8.11 4.61 11.94l.28 2.07c1.21-4.1 3.14-9.95 4.58-14 .77-.05 1.37-.05 2.2-.05.79 0 2.3-.03 3.01-.1m8.52 13.5v-2.87c-1.084.07-3.645.66-4.003 1.01-.294.3-.484.97-.484 1.48 0 .85.54 1.66 1.827 1.66 1.07 0 2.32-.95 2.67-1.27m-4.14-5.32c-.31.19-.75.287-1.166.31-.44-.7-.82-1.4-.95-2.33 1.23-.923 2.74-1.58 4.445-1.58 1.44 0 3.91.586 3.91 3.84 0 1.46-.05 2.95-.05 4.6 0 .647.05 1.348.24 1.93.583-.07 1.19-.24 1.703-.39.224.22.37.54.37.9-.78.66-2.03 1.24-2.91 1.24-.55 0-.968-.715-1.266-2.09-.54.544-2.43 2.02-4.1 2.02-1.61 0-2.767-1.11-2.767-2.9 0-3.05 4.35-4.19 6.673-4.56 0-1.78-.37-3.09-2.05-3.09-.62 0-1.396.145-2 .288-.107.59-.107 1.16-.08 1.8m13.53-1.18c.77-1.24 1.93-2.37 3.452-2.37.724 0 1.44.12 1.975.31 0 1.347-.13 2.18-.44 3.22-.44.148-.86.148-1.275 0-.046-.53-.14-1.27-.284-1.73-.18-.02-.37-.044-.643-.044-.91 0-1.74.3-2.72 1.92v4.737c0 .664.03 1.25.07 1.83.93.05 2.12.213 2.89.44 0 .37-.05.88-.145 1.093-1.345-.037-2.67-.05-3.79-.05-1 0-1.95.05-2.953.05-.09-.19-.16-.704-.16-1.096.68-.074 1.464-.25 1.953-.42.07-.535.1-.88.1-1.367v-3.28c0-1.657-.12-3.37-.12-3.37-.69-.216-1.39-.31-2.094-.38-.13-.276-.16-.56-.13-.88.93-.395 2.58-.86 3.86-.95.14.423.37 1.26.47 2.34m13.536-.57c-.405-.12-.93-.168-1.82-.168-.907 0-1.67.21-1.885.415-.58.463-1.32 1.855-1.32 3.39 0 2.14.76 4.813 3.326 4.813 1.07 0 2.12-.24 3.63-.832.273.18.39.57.415.93-1.095.81-3.025 1.666-4.47 1.666-3.416 0-4.98-2.71-4.98-5.826 0-2.9 2.03-6.16 5.376-6.16 1.824 0 2.933.5 3.874.904 0 1-.343 2.3-.71 2.96-.37.06-.75.076-1.18-.06-.086-.65-.158-1.32-.25-2.03m7.385-.58c.848-.58 2.38-1.26 3.98-1.26 2.146 0 3.37 1.19 3.37 3.89v4.555c0 .664.02 1.25.07 1.83.657.07 1.396.25 1.837.44 0 .37-.05.88-.155 1.093-.654-.034-2.143-.05-2.727-.05-1.004 0-2.028.05-2.957.05-.1-.19-.17-.7-.17-1.092.68-.07 1.47-.25 1.957-.415.07-.537.09-.88.09-1.37v-4.09c0-1.82-.296-3.16-2.23-3.16-1.202 0-2.19.3-3.072.715v6.05c0 .66.026 1.25.07 1.83.66.07 1.4.25 1.84.44 0 .37-.05.88-.16 1.09-.653-.04-2.143-.05-2.73-.05-1 0-2.02.05-2.95.05-.097-.19-.17-.705-.17-1.1.68-.07 1.47-.25 1.96-.42.07-.532.1-.88.1-1.37V7.2c0-1.936-.05-5.065-.05-5.065-.68-.214-1.39-.31-2.096-.38-.094-.286-.17-.584-.12-.88.92-.393 2.706-.785 4.1-.88.12.37.26 1.247.26 2.116 0 .62-.044 3.16-.044 5.09v.93zM92.79.43c.13.165.19.354.19.558-1.208 1.342-2.648 2.912-4.3 4.47-.43-.143-.766-.405-.94-.68.853-1.342 2.13-3.268 2.68-4.076.772-.214 1.57-.272 2.37-.272m-6.81 11.103c.777.06 1.74.083 2.635.083 1.287 0 2.49-.072 2.848-.143-.12-1.712-.488-3.02-2.657-3.02-.608 0-1.443.26-1.585.393-.47.38-1.04 1.462-1.24 2.687m7.56 5.635c-1.14.677-3.12 1.76-4.7 1.76-3.49 0-4.95-2.57-4.95-5.827 0-3.02 2.18-6.23 5.28-6.23 3.57 0 4.36 2.24 4.36 4.35 0 .56-.09 1.25-.16 1.49-1 .1-2.44.18-3.95.18-1.16 0-2.37-.03-3.45-.12.1 2.06.91 4.4 3.31 4.4 1.08 0 2.37-.3 3.88-.88.27.18.39.51.42.88"/>
    <g transform="translate(0 27.793)">
      <mask id="b" fill="#fff">
        <use xlink:href="#a"/>
      </mask>
      <path fill="#0072BC" d="M17.235 13.93c3.26 0 4.99-1.085 4.99-4.732 0-3.252-.94-4.68-4.99-4.68h-3.902v9.41h3.902zm11.397 18.8c-5.814-.703-7.79-3.096-7.79-8.113V23.44c0-3.695-.89-5.026-4.1-5.026h-3.41v9.797l4.297.73v3.53H0v-3.53l4-.72V4.52l-4-.723V.032h18.718c9.778 0 13.333 4.042 13.333 8.13 0 4.14-2.61 7.308-10.81 8.097v.15c6.91.68 8.94 2.9 9.09 6.94l.05 1.37c.1 2.26.29 3.23 1.81 3.69 1.53.46 3.39.69 3.39.69v3.35s-2.91.75-6.93.27z" mask="url(#b)"/>
    </g>
    <path fill="#0072BC" d="M40.98 29.698c0-2.612 1.897-4.68 4.626-4.68 2.774 0 4.625 1.92 4.625 4.482 0 2.613-1.89 4.683-4.62 4.683-2.77 0-4.62-1.922-4.62-4.485zM38.2 56.976l3.604-.726V41.185l-3.604-.723v-3.52h11.95V56.25l3.606.726v3.276H38.198v-3.276zm101.207 0l3.604-.726V30.393l-3.6-.725v-3.52h11.95V56.25l3.61.726v3.276h-15.56m21.05-30.554c0-2.612 1.9-4.68 4.63-4.68 2.78 0 4.63 1.92 4.63 4.482 0 2.613-1.89 4.683-4.62 4.683-2.77 0-4.62-1.922-4.62-4.485zm-2.4 27.278l3.61-.726V41.185l-3.6-.723v-3.52h11.95V56.25l3.61.726v3.276h-15.56v-3.276z"/>
    <g transform="translate(201.935 36.793)">
      <mask id="d" fill="#fff">
        <use xlink:href="#c"/>
      </mask>
      <path fill="#0072BC" d="M3.286 15.425V4.392L.076 3.67V.15h11.556v14.586c0 1.43.246 2.563.986 3.302.397.395 1.087.69 2.026.69 2.025 0 3.705-2.12 3.705-4.928V4.392l-3.22-.722V.15h11.56v19.307l3.26.726v3.276H18.94v-6.21C17.706 20.94 15.286 24 10.693 24c-5.483 0-7.408-3.695-7.408-8.575" mask="url(#d)"/>
    </g>
    <g transform="translate(55.12 36.293)">
      <mask id="f" fill="#fff">
        <use xlink:href="#e"/>
      </mask>
      <path fill="#0072BC" d="M19.235 16.783c-.915 1.894-2.434 3.035-4.692 3.035-3.556 0-5.576-3.105-5.576-7.588 0-5.124 2.464-8.132 5.625-8.132 1.728 0 2.814.593 3.506 1.43-1.137.443-2.173 1.48-2.173 3.155 0 2.02 1.432 3.744 4 3.744 2.766 0 4.247-1.823 4.247-4.385 0-3.697-3.21-7.935-10.616-7.935C5.653.107.37 5.133.37 12.723.37 19.87 5.257 24.5 13.504 24.5c5.814 0 9.168-3.27 10.39-7.717h-4.66z" mask="url(#f)"/>
    </g>
    <path fill="#0072BC" d="M125.667 40.046c2.322 0 3.556 1.43 3.754 6.357h-7.7c.25-4.828 1.68-6.357 3.95-6.357zm6.865 13.03c-.925 2.398-2.51 3.38-5.038 3.38-3.456 0-5.482-1.378-5.777-6.653h15.753c.446-8.13-3.455-13.403-11.703-13.403-7.21 0-12.593 5.274-12.593 12.418 0 7.293 5.036 11.975 13.037 11.975 6.83 0 9.97-3.186 10.86-7.717h-4.53zm55.552-13.03c2.32 0 3.555 1.43 3.755 6.357h-7.71c.24-4.828 1.68-6.357 3.95-6.357zm6.865 13.03c-.93 2.398-2.52 3.38-5.04 3.38-3.46 0-5.48-1.38-5.78-6.653h15.75c.44-8.13-3.46-13.403-11.71-13.403-7.21 0-12.6 5.274-12.6 12.417 0 7.294 5.03 11.976 13.04 11.976 6.83 0 9.96-3.187 10.86-7.717h-4.54zm-86.72 3.174V44.976c0-4.88-1.93-8.576-7.51-8.576-3.95 0-6.32 2.365-7.76 5.57V26.15h-11.6v3.518l3.26.725V56.25l-3.26.726v3.276h13.66v-3.276l-2.06-.726V46.6c0-2.808 1.68-4.925 3.8-4.925.94 0 1.63.245 2.12.737.69.69.98 1.774.98 3.253V56.25l-2.06.726v3.276h13.61v-3.276l-3.21-.726z"/>
  </g>
</svg>
