<svg xmlns="http://www.w3.org/2000/svg" width="44" height="61" viewBox="0 0 44 61">
  <path fill="#ED1C24" fill-rule="evenodd" d="M180.632,18.288 C180.368,19.432 180.016,20.136 179.664,20.136 C179.312,20.136 179.048,19.52 178.784,18.64 C178.608,17.672 178.432,16.968 178.08,16.264 C177.728,15.12 177.288,13.976 176.936,12.744 C176.584,11.512 176.056,10.192 175.528,8.784 C174.912,7.376 174.472,6.144 174.12,5 C173.24,1.392 172.976,1.04 171.04,1.04 C169.984,1.04 168.664,1.128 166.992,1.216 C166.376,1.304 165.848,1.304 165.496,1.304 C164.88,1.304 164.088,1.216 163.032,1.128 C162.504,1.04 162.064,1.04 161.8,1.04 C159.864,1.04 158.984,2.184 158.984,4.648 L159.16,32.104 L159.072,53.752 C158.984,55.688 158.896,57.184 158.896,58.064 C158.896,59.56 159.6,60.352 160.744,60.352 C161.536,60.352 162.152,60.352 162.68,60.264 C163.912,60.176 164.792,60.088 165.056,60.088 C165.232,60.088 165.496,60.088 165.848,60.176 C167.872,60.44 169.456,60.616 170.336,60.616 C171.392,60.616 172.272,59.824 172.272,58.768 C172.272,58.504 172.184,57.096 172.008,55.16 L172.184,50.672 L172.096,43.632 C172.096,39.672 172.096,39.672 171.832,35.8 C171.744,34.392 171.744,32.984 171.744,31.752 C171.744,30.96 172.096,30.432 172.536,30.432 C172.976,30.432 173.328,30.872 173.504,31.752 C173.592,32.456 174.296,34.832 175.176,37.384 L176.584,40.464 L177.64,43.632 C178.168,45.392 178.96,46.272 179.928,46.272 C180.456,46.272 180.808,45.92 181.248,44.952 C183.448,40.288 184.68,37.648 184.856,36.856 C186.704,31.224 186.88,30.608 187.408,30.608 C187.76,30.608 188.112,31.4 188.112,32.016 C188.112,32.368 188.112,32.808 188.024,33.336 C187.848,35.448 187.848,35.448 188.2,40.288 C188.112,41.696 187.848,47.328 187.848,48.384 L187.936,53.4 C187.936,54.28 187.848,55.336 187.672,56.832 C187.584,57.184 187.584,57.448 187.584,57.712 C187.584,58.768 188.816,60.264 189.696,60.264 L194.624,60.088 C194.624,60.088 194.8,60.088 194.976,60.176 C196.032,60.264 197.088,60.352 198.056,60.352 C200.432,60.352 201.224,59.56 201.224,57.008 C201.224,55.952 201.224,55.952 200.872,50.76 L201.136,44.072 L200.96,35.008 L201.136,25.152 L200.784,11.512 C201.136,4.56 201.136,4.56 201.136,3.768 C201.136,2.008 200.52,1.128 199.2,0.952 L191.28,1.128 L188.728,1.04 C186.44,1.04 185.912,1.48 185.384,3.504 C185.12,4.912 184.68,6.672 183.976,8.696 C182.656,12.656 182.216,13.976 181.776,14.944 C181.6,15.56 181.336,16.176 181.072,16.792 L180.632,18.288 Z" transform="translate(-158)"/>
</svg>
