<svg xmlns="http://www.w3.org/2000/svg" width="36" height="61" viewBox="0 0 36 61">
  <path fill="#ED1C24" fill-rule="evenodd" d="M283.844,15.04 C280.94,15.04 280.5,15.392 280.5,17.68 C280.5,18.296 280.5,19.44 280.588,20.496 C280.676,22.696 280.676,24.192 280.676,24.808 L280.5,32.64 L280.588,39.592 L280.412,47.512 C280.324,48.744 280.324,50.328 280.324,52.264 C280.324,65.728 280.324,66.96 280.236,69.776 L280.236,71.712 C280.236,73.648 280.764,74.264 282.348,74.264 L287.012,74.176 C287.628,74.176 288.508,74.176 290.004,74.264 C290.444,74.352 290.972,74.352 291.236,74.352 C292.996,74.352 293.876,73.648 293.876,72.152 L293.876,71.272 C293.348,65.024 293.348,65.024 293.348,61.944 C293.348,60.888 293.348,58.864 293.436,56.312 C293.524,54.816 293.524,53.584 293.524,52.616 C293.524,51.472 293.524,50.592 293.436,49.976 C293.172,47.512 293.172,47.512 293.172,47.336 C293.172,46.896 293.348,46.456 293.612,46.456 C293.876,46.456 294.052,46.896 294.228,47.512 L294.756,49.36 C295.196,50.768 295.548,52.088 295.9,53.32 C296.868,56.752 296.956,57.016 300.3,67.576 C300.564,68.72 300.916,69.688 301.268,70.568 C301.444,71.272 301.62,71.888 301.796,72.504 C302.06,73.824 302.588,74.264 304.172,74.264 C304.436,74.264 304.964,74.264 305.492,74.176 C306.9,74.088 307.956,74.088 308.66,74.088 C309.54,74.088 310.508,74.088 311.564,74.176 C312.004,74.264 312.444,74.264 312.62,74.264 C314.204,74.264 315.084,73.208 315.084,71.36 C315.084,70.92 315.084,70.216 314.996,69.424 C314.908,67.576 314.82,65.728 314.82,64.056 L314.996,57.544 C314.996,56.928 314.996,56.224 314.908,54.816 C314.82,53.056 314.82,51.912 314.82,51.12 L315.26,22.168 C315.26,17.416 315.26,16.624 315.084,16.184 C314.82,15.392 313.94,14.952 312.796,14.952 L306.812,15.128 C306.284,15.128 305.668,15.128 304.612,15.04 C304.26,14.952 303.82,14.952 303.644,14.952 C302.5,14.952 301.708,15.92 301.708,17.24 C301.708,17.944 301.796,19.176 301.972,20.672 C302.148,21.904 302.236,22.96 302.236,23.928 L302.148,28.856 C302.06,29.824 302.06,30.792 302.06,31.848 C302.06,33.696 302.148,35.28 302.236,36.952 L302.236,37.744 C302.236,38.536 301.884,39.152 301.356,39.152 C300.828,39.152 300.476,38.536 300.212,37.48 C299.684,35.104 299.596,34.928 297.836,30 C296.34,25.952 295.46,22.872 294.668,19.088 C293.876,15.48 293.524,14.952 291.94,14.952 L287.188,15.128 L283.844,15.04 Z" transform="translate(-280 -14)"/>
</svg>
