<svg xmlns="http://www.w3.org/2000/svg" width="34" height="62" viewBox="0 0 34 62">
  <path fill="#ED1C24" fill-rule="evenodd" d="M33.012,21.896 C32.924,11.248 31.956,7.288 28.524,3.856 C26.06,1.304 22.716,0.16 17.524,0.16 C13.564,0.16 10.308,0.688 8.19600002,1.744 C5.02800002,3.152 2.38800002,5.968 1.50800002,8.608 C0.628000024,11.336 0.188000024,17.32 0.188000024,27.264 C0.188000024,30.168 0.452000024,40.904 0.540000024,44.776 C0.628000024,46.976 1.42000002,51.64 1.94800002,52.784 C4.41200002,58.328 9.34000002,61.144 16.644,61.144 C27.996,61.144 33.452,54.28 33.452,39.936 C33.452,37.912 33.364,34.128 33.276,30.784 L33.012,21.896 Z M13.564,38.792 C13.476,36.152 13.476,36.152 13.476,35.624 C13.476,34.656 13.476,33.776 13.564,32.896 C13.652,31.488 13.652,30.52 13.652,30.168 C13.652,29.728 13.564,28.584 13.476,27.176 C13.388,25.328 13.3,23.656 13.3,22.072 C13.3,17.76 13.476,14.944 13.916,13.976 C14.268,13.008 15.588,12.128 16.644,12.128 C18.052,12.128 19.02,13.008 19.46,14.68 C19.724,15.56 20.076,23.216 20.076,27.704 C20.076,28.936 20.076,29.728 19.988,31.84 C19.9,34.128 19.9,35.888 19.9,37.032 C19.9,38.264 19.9,39.584 19.988,40.904 C20.076,42.224 20.076,43.28 20.076,43.72 C20.076,46.36 18.756,48.12 16.82,48.12 C14.62,48.12 13.652,46.272 13.564,42.136 L13.564,38.792 Z"/>
</svg>
