<svg xmlns="http://www.w3.org/2000/svg" width="34" height="61" viewBox="0 0 34 61">
  <path fill="#ED1C24" fill-rule="evenodd" d="M3.32799989,1.128 C1.03999989,1.128 0.335999893,1.92 0.335999893,4.824 L0.335999893,6.056 C0.511999893,9.312 0.687999893,12.04 0.687999893,12.216 C0.687999893,12.216 0.599999893,13.272 0.423999893,14.768 L0.247999893,18.904 C0.511999893,42.928 0.511999893,42.928 0.511999893,43.016 C0.511999893,44.776 0.511999893,44.776 0.247999893,48.912 C0.511999893,53.664 0.511999893,53.664 0.511999893,54.192 C0.511999893,54.896 0.511999893,55.512 0.423999893,56.04 C0.247999893,57.184 0.159999893,57.976 0.159999893,58.504 C0.159999893,59.824 0.951999893,60.352 2.62399989,60.352 L4.38399989,60.264 C5.26399989,60.088 5.96799989,60 5.96799989,60 L11.6879999,60.264 C12.7439999,60.352 13.9759999,59.208 13.9759999,58.24 C13.7999999,54.984 13.7999999,54.984 13.7119999,51.376 L13.5359999,47.592 C13.5359999,45.392 14.8559999,44.072 17.1439999,44.072 L17.9359999,44.072 C18.6399999,44.16 19.1679999,44.16 19.2559999,44.16 C21.9839999,44.16 25.3279999,43.016 26.7359999,41.608 C28.8479999,39.496 29.2879999,38.968 31.2239999,35.888 C32.4559999,33.952 33.4239999,28.936 33.4239999,24.712 C33.4239999,21.632 33.4239999,21.544 32.8959999,16.44 C32.5439999,13.448 32.5439999,13.448 31.3999999,10.632 C29.9039999,7.024 29.5519999,6.496 26.6479999,4.12 C23.8319999,1.744 21.1919999,0.952 15.9119999,0.952 L13.3599999,0.952 C7.02399989,1.216 7.02399989,1.216 5.96799989,1.216 C5.43999989,1.216 4.82399989,1.216 4.29599989,1.128 L3.32799989,1.128 Z M15.6479999,13.624 C17.2319999,13.624 18.2879999,14.416 19.0799999,16.264 C19.7839999,17.848 20.1359999,19.52 20.1359999,21.192 C20.1359999,26.472 20.1359999,26.472 19.3439999,28.144 C18.6399999,29.728 17.3199999,30.784 16.0879999,30.784 C14.3279999,30.784 13.2719999,29.288 13.2719999,26.736 C13.2719999,25.68 13.3599999,24.536 13.4479999,23.392 C13.5359999,22.512 13.5359999,21.896 13.5359999,21.544 C13.5359999,21.192 13.4479999,20.488 13.3599999,19.608 C13.2719999,18.64 13.1839999,17.584 13.1839999,16.88 C13.1839999,14.768 14.0639999,13.624 15.6479999,13.624 Z"/>
</svg>
