<svg xmlns="http://www.w3.org/2000/svg" width="36" height="61" viewBox="0 0 36 61">
  <path fill="#ED1C24" fill-rule="evenodd" d="M7.72399993,1.128 C5.08399993,0.952 5.08399993,0.952 4.37999993,0.952 C1.56399993,0.952 0.507999928,1.92 0.507999928,4.56 L0.507999928,6.496 C0.595999928,8.08 0.595999928,9.312 0.595999928,10.104 L0.595999928,12.568 C0.507999928,14.416 0.507999928,15.736 0.507999928,16 L0.507999928,35.888 L0.683999928,45.304 L0.595999928,50.76 C0.595999928,54.632 0.595999928,54.808 0.507999928,56.128 C0.419999928,56.92 0.419999928,57.448 0.419999928,57.888 C0.419999928,59.824 1.29999993,60.616 3.58799993,60.44 L7.81199993,60.176 C7.81199993,60.176 9.13199993,60.264 10.7159999,60.44 L11.5959999,60.44 C13.2679999,60.44 14.0599999,59.472 14.0599999,57.536 C14.0599999,55.864 13.9719999,54.192 13.7079999,52.432 C13.6199999,51.464 13.5319999,50.76 13.5319999,50.672 C13.5319999,43.808 13.7079999,42.4 14.4999999,42.4 C15.0279999,42.4 15.6439999,43.192 15.9079999,44.16 C16.7879999,47.592 16.8759999,47.768 17.4039999,49.176 C18.0199999,50.408 18.6359999,51.64 19.1639999,53.048 C19.7799999,54.72 19.8679999,54.984 20.8359999,58.504 C21.0999999,59.56 21.6279999,60.44 21.9799999,60.44 L29.2839999,60 C29.2839999,60 30.0759999,60.088 31.2199999,60.264 C31.5719999,60.352 31.9239999,60.352 32.1879999,60.352 C33.9479999,60.352 35.1799999,59.384 35.1799999,58.064 C35.1799999,56.832 34.3879999,54.456 32.8919999,51.464 C32.4519999,50.496 32.0119999,49.616 31.5719999,48.736 L30.4279999,45.568 L29.2839999,42.576 C28.8439999,41.52 28.4039999,40.728 27.8759999,39.848 C27.6119999,39.408 27.4359999,39.056 27.4359999,38.88 C27.4359999,38.528 27.6999999,38.088 28.1399999,37.648 C30.5159999,35.36 30.5159999,35.36 31.0439999,34.568 C32.7159999,31.752 33.8599999,28.32 33.8599999,25.944 L33.5079999,19.872 C33.2439999,14.328 32.9799999,11.336 32.8919999,10.808 C31.2199999,5.352 26.2039999,0.952 21.3639999,0.688 L7.72399993,1.128 Z M20.2199999,24.536 C20.3959999,26.472 18.3719999,28.848 16.5239999,28.848 C14.4999999,28.848 13.4439999,27.616 13.4439999,25.504 C13.4439999,25.064 13.4439999,24.448 13.5319999,23.744 C13.6199999,22.864 13.6199999,21.72 13.6199999,20.224 C13.6199999,18.904 13.6199999,17.76 13.5319999,16.968 C13.4439999,16.088 13.4439999,15.296 13.4439999,15.12 C13.4439999,13.624 14.2359999,12.832 15.8199999,12.832 C18.4599999,12.832 20.0439999,14.944 20.0439999,18.376 L19.9559999,21.192 L20.2199999,24.536 Z"/>
</svg>
