<svg xmlns="http://www.w3.org/2000/svg" width="29" height="62" viewBox="0 0 29 62">
  <path fill="#ED1C24" fill-rule="evenodd" d="M14.6359999,0.248 C12.2599999,0.512 6.80399986,2.272 5.57199986,3.24 C5.21999986,3.504 3.10799986,6.056 2.57999986,6.936 C0.995999857,9.224 0.379999857,11.952 0.379999857,16.176 C0.379999857,21.984 0.643999857,22.864 3.98799986,28.936 C3.98799986,29.024 5.39599986,30.696 8.21199986,34.04 C10.4119999,36.592 10.4119999,36.592 11.7319999,37.824 C14.1959999,40.024 14.9879999,41.344 14.9879999,43.104 C14.9879999,45.304 13.1399999,47.152 10.8519999,47.152 C9.17999986,47.152 7.50799986,46.624 4.95599986,45.304 C4.25199986,44.952 3.63599986,44.776 3.28399986,44.776 C2.57999986,44.776 1.17199986,45.832 0.907999857,46.448 C0.907999857,46.536 0.819999857,47.68 0.643999857,50.144 C0.819999857,52.08 0.819999857,52.08 0.819999857,53.048 L0.819999857,54.456 C0.731999857,55.512 0.731999857,56.304 0.731999857,56.568 C0.731999857,57.888 1.17199986,58.768 1.96399986,59.208 C3.72399986,60 9.35599986,61.056 12.3479999,61.056 C15.9559999,61.056 19.9159999,59.56 22.9079999,57.096 C26.8679999,53.928 28.6279999,49.792 28.6279999,43.72 C28.6279999,37.736 25.8119999,30.432 22.1159999,27.088 C19.9159999,24.976 18.7719999,23.92 18.6839999,23.744 C16.7479999,21.544 16.7479999,21.544 15.4279999,20.224 C13.6679999,18.64 13.1399999,17.672 13.1399999,16.264 C13.1399999,14.24 14.8119999,12.92 17.1879999,12.92 C18.1559999,12.92 19.2119999,13.184 20.8839999,13.8 C21.8519999,14.152 22.3799999,14.328 22.7319999,14.328 C23.2599999,14.328 23.6119999,14.152 24.4039999,13.536 C25.4599999,12.656 25.5479999,12.48 25.5479999,11.512 C25.3719999,8.344 25.3719999,8.344 25.3719999,5.352 C25.3719999,4.208 25.3719999,3.504 25.2839999,3.24 C25.0199999,1.656 23.7879999,0.512 22.2919999,0.512 L20.6199999,0.6 L14.6359999,0.248 Z"/>
</svg>
