<svg xmlns="http://www.w3.org/2000/svg" width="28" height="61" viewBox="0 0 28 61">
  <path fill="#ED1C24" fill-rule="evenodd" d="M166.428,1.04 C164.14,1.04 163.172,1.744 163.172,3.416 C163.172,3.856 163.172,4.472 163.26,5.176 C163.348,5.792 163.348,6.32 163.348,6.76 C163.348,7.112 163.348,7.112 163.172,9.84 C163.172,13.888 163.436,14.416 165.108,14.416 C165.372,14.416 165.636,14.416 165.9,14.328 C167.748,14.152 167.748,14.152 168.188,14.152 C169.156,14.152 169.684,14.592 170.036,15.56 C170.124,16.088 170.3,20.136 170.3,23.48 L170.124,29.2 C170.124,29.552 170.124,31.312 170.212,33.688 L170.212,48.472 C170.124,49.352 170.124,49.968 170.124,50.056 L170.212,55.776 C170.212,55.952 170.124,56.392 170.036,57.096 C169.948,57.624 169.948,58.152 169.948,58.592 C169.948,59.736 170.74,60.616 171.796,60.616 C172.324,60.616 173.028,60.528 173.996,60.352 C174.612,60.264 175.404,60.176 176.108,60.176 C176.548,60.176 176.9,60.176 177.34,60.264 C179.1,60.44 180.508,60.528 181.036,60.528 C182.62,60.528 183.588,59.472 183.588,57.712 C183.588,57.096 183.5,56.04 183.412,54.72 C183.324,53.576 183.324,52.256 183.324,50.848 C183.324,49.704 183.324,48.032 183.412,45.744 C183.588,42.488 183.588,40.992 183.588,39.32 C183.588,38.352 183.588,37.384 183.5,36.504 C183.324,33.16 183.236,30.872 183.236,30.696 C183.236,30.432 183.324,29.464 183.412,28.056 C183.5,27 183.5,25.944 183.5,25.152 C183.5,24.272 183.412,22.952 183.324,21.192 C183.236,20.048 183.236,19.168 183.236,18.816 C183.236,14.24 183.236,14.24 183.94,14.152 L187.548,14.152 C189.66,14.064 190.364,13.36 190.364,11.336 C190.364,10.632 190.364,9.488 190.276,7.992 L190.188,6.672 C190.188,3.064 190.188,3.064 190.012,2.36 C189.748,1.392 189.22,0.952 188.34,0.952 L187.548,0.952 C184.908,1.128 182.18,1.216 178.132,1.216 L166.428,1.04 Z" transform="translate(-163)"/>
</svg>
