<svg xmlns="http://www.w3.org/2000/svg" width="34" height="62" viewBox="0 0 34 62">
  <path fill="#ED1C24" fill-rule="evenodd" d="M294.164,28.672 L294.076,34.656 L294.34,44.688 C294.34,46.624 293.108,47.856 291.26,47.856 C289.236,47.856 288.18,46.536 288.18,44.248 L288.356,32.456 C288.004,29.464 288.004,29.464 288.004,28.672 C288.004,25.504 288.004,24.36 288.268,20.224 L288.268,14.328 L288.18,11.424 L288.356,9.4 L288.268,3.152 C288.268,2.008 287.388,1.04 286.332,0.952 L280.964,1.04 L278.236,0.952 C275.596,0.952 274.804,1.656 274.804,4.208 L274.804,5 C274.98,8.432 275.068,11.776 275.068,18.904 C275.068,19.608 275.068,19.608 274.892,22.776 L274.98,25.504 L274.98,26.12 C274.804,27.44 274.804,28.848 274.804,30.784 C274.804,32.544 274.892,34.216 274.98,35.448 C275.068,36.856 275.156,37.824 275.156,38 L275.068,41.08 L275.068,42.224 C275.156,42.84 275.156,42.84 275.156,44.512 C275.244,50.584 275.332,51.112 276.476,53.664 C278.676,58.504 283.604,61.056 290.82,61.056 C297.508,61.056 301.292,59.384 304.636,54.896 C306.572,52.344 307.276,50.056 307.276,46.624 L307.276,44.776 C307.188,42.928 307.188,41.52 307.188,41.08 C307.188,40.112 307.188,39.056 307.276,37.912 L307.364,35.008 C307.364,34.744 307.364,33.16 307.276,30.608 L307.276,28.232 C307.276,25.856 307.276,25.856 307.54,20.664 C307.54,20.576 307.452,18.904 307.364,16.528 L307.364,12.128 L307.276,8.08 C307.188,7.464 307.188,7.024 307.188,7.024 L307.276,3.24 C307.276,2.008 306.132,0.864 304.9,0.864 C303.932,0.952 300.412,1.04 299.532,1.04 C297.068,0.864 297.068,0.864 296.54,0.864 C294.604,0.864 293.9,1.568 293.9,3.416 L294.164,11.952 C294.164,11.952 294.076,12.832 294.076,13.976 C293.988,14.856 293.988,16 293.988,17.32 C293.988,18.992 293.988,20.4 294.076,21.808 L294.164,26.472 L294.164,28.672 Z" transform="translate(-274)"/>
</svg>
