<svg xmlns="http://www.w3.org/2000/svg" width="37" height="61" viewBox="0 0 37 61">
  <path fill="#ED1C24" fill-rule="evenodd" d="M313.628,1.04 C312.308,1.04 311.428,1.744 311.428,2.712 C311.428,3.504 311.692,4.824 312.132,6.408 C312.572,7.552 312.748,8.96 312.924,10.896 C313.716,17.76 313.892,18.816 315.388,25.592 C316.092,29.112 316.444,30.696 317.588,37.384 C318.292,41.256 318.556,42.312 319.348,45.656 C319.788,47.064 320.228,49.088 320.58,51.464 C321.988,59.56 322.252,60.264 323.572,60.264 C324.1,60.264 325.156,60.176 326.212,60.088 C327.444,60 327.972,60 328.94,60 L336.684,60.176 C338.444,60.176 339.06,59.56 339.412,57.448 L339.852,54.896 L340.38,51.024 C340.556,50.056 340.732,49.088 340.908,48.032 C341.172,47.064 341.348,46.008 341.524,45.04 C342.58,36.68 343.372,31.4 343.812,28.936 C344.076,27.528 344.34,26.296 344.516,24.976 L344.78,22.952 L345.044,21.984 L345.22,21.104 C345.22,20.488 345.308,19.872 345.396,19.256 C345.572,18.816 345.572,18.288 345.748,16.264 C345.924,13.624 346.892,7.024 347.244,5.704 C347.508,4.472 347.684,3.592 347.684,3.064 C347.684,1.744 346.98,0.864 345.836,0.864 C345.396,0.864 344.692,0.864 343.724,0.952 C343.284,1.04 342.844,1.04 342.316,1.04 C341.788,1.04 341.084,1.04 340.116,0.952 C338.884,0.864 337.652,0.776 336.86,0.776 C334.396,0.776 333.692,1.744 333.516,5.44 L333.34,8.52 L333.076,11.248 L332.9,12.568 L332.812,13.536 L332.636,15.12 L332.372,18.552 C331.404,28.848 331.316,30.52 330.964,32.808 L330.7,35.712 C330.7,36.68 330.436,37.296 329.996,37.296 C329.644,37.296 329.38,36.768 329.38,35.888 L328.94,32.984 L328.588,29.552 C327.796,22.336 327.18,17.056 326.74,13.8 C326.476,12.304 326.212,10.808 326.036,9.312 L325.42,4.648 C325.156,2.008 324.276,0.952 322.34,0.952 C321.548,0.952 320.316,1.04 318.82,1.128 C318.028,1.216 317.236,1.216 316.62,1.216 C316.004,1.216 315.564,1.216 315.124,1.128 L313.628,1.04 Z" transform="translate(-311)"/>
</svg>
