<svg xmlns="http://www.w3.org/2000/svg" width="36" height="61" viewBox="0 0 36 61">
  <path fill="#ED1C24" fill-rule="evenodd" d="M210.544,135.392 C209.928,135.392 209.136,135.304 207.904,135.128 C207.464,135.04 207.112,135.04 206.936,135.04 C205.176,135.04 204.208,136.008 204.12,137.856 L204.032,139.704 L203.768,141.728 C202.184,149.032 201.744,150.88 201.656,151.76 C201.568,152.728 201.304,153.432 201.04,153.432 C200.864,153.432 200.6,152.904 200.424,151.936 C200.072,149.648 199.544,146.832 198.84,143.4 C198.664,142.432 198.4,141.376 198.224,140.144 C197.696,136.888 197.696,136.888 197.52,136.536 C197.168,135.568 196.552,135.04 195.672,135.04 C195.32,135.04 194.792,135.128 194,135.216 C193.472,135.304 192.416,135.304 191.008,135.304 L189.688,135.304 C187.4,135.04 185.816,134.952 185.64,134.952 C184.496,134.952 183.616,135.832 183.616,136.888 C183.616,137.504 183.792,138.472 184.144,139.528 L184.672,141.376 L185.728,145.16 C186.608,148.504 187.752,152.112 189.424,157.128 C190.568,160.56 191.712,164.168 192.68,167.248 C194.176,171.208 194.352,172 194.352,173.76 L194.352,174.64 L194.088,177.984 L194,181.328 C194,187.752 194,188.192 193.912,190.92 C193.824,191.536 193.824,191.976 193.824,192.24 C193.824,193.472 194.704,194.352 195.936,194.352 L200.424,194.088 L205.088,194.352 C206.584,194.44 207.552,193.56 207.552,191.976 C207.552,191.536 207.552,190.832 207.464,190.128 C207.288,188.104 207.2,185.64 207.2,183 C207.2,176.84 207.376,173.144 207.728,171.912 L208.168,170.68 C208.432,169.976 208.696,169.184 208.96,168.392 C209.4,167.16 209.84,165.928 210.368,164.608 C210.896,163.2 211.072,162.672 212.216,158.36 L212.568,157.128 L213.272,154.84 C214.064,152.376 214.944,149.736 215.912,146.92 C216.264,145.952 216.528,144.984 216.88,143.84 L217.408,141.376 C217.672,140.496 218.024,139.616 218.376,138.736 C218.64,138.032 218.816,137.504 218.816,136.976 C218.816,135.92 217.936,135.216 216.704,135.216 L210.544,135.392 Z" transform="translate(-183 -134)"/>
</svg>
